M48
METRIC,TZ
T1C0.700
T2C0.800
T3C1.016
T4C1.524
%
G90
G05
T1
X9940Y7770
X10090Y12840
X10820Y23160
X23730Y17410
X37640Y12920
X39130Y13870
X39200Y15890
X48360Y10090
X49340Y25530
X52330Y10920
X54450Y17350
X57580Y6170
X58900Y19130
X65340Y26480
T2
X20190Y9490
X20190Y4490
X56910Y15180
X59450Y15180
X61990Y15180
X64530Y15180
T3
X35770Y25490
X38310Y25490
X40850Y25490
X43390Y25490
X45930Y25490
T4
X5010Y23020
X5010Y17940
X5010Y12860
X5010Y7780
T0
M30
