<?xml version="1.0" standalone="no"?>
 <!DOCTYPE svg PUBLIC "-//W3C//DTD SVG 1.1//EN" 
 "http://www.w3.org/Graphics/SVG/1.1/DTD/svg11.dtd"> 
<svg xmlns="http://www.w3.org/2000/svg" version="1.1" 
    width="8.90016cm" height="18.8849cm" viewBox="0 0 35040 74350 ">
<title>SVG Picture created as CanPressure-brd.svg date 2022/07/10 11:26:24 </title>
  <desc>Picture generated by PCBNEW </desc>
<g style="fill:#000000; fill-opacity:1;stroke:#000000; stroke-opacity:1;
stroke-linecap:round; stroke-linejoin:round; "
 transform="translate(0 0) scale(1 1)">
</g>
<g style="fill:#000000; fill-opacity:0.0; 
stroke:#000000; stroke-width:-0.000393701; stroke-opacity:1; 
stroke-linecap:round; stroke-linejoin:round;">
</g>
<g style="fill:#840084; fill-opacity:0.0; 
stroke:#840084; stroke-width:-0.000393701; stroke-opacity:1; 
stroke-linecap:round; stroke-linejoin:round;">
</g>
<g style="fill:#840084; fill-opacity:0.0; 
stroke:#840084; stroke-width:47.2441; stroke-opacity:1; 
stroke-linecap:round; stroke-linejoin:round;">
<path d="M15006.5 19265.9 A1062.99 1062.99 0.0 0 0 17132.5 19265.9 " />
<path d="M17132.5 17297.4 A1062.99 1062.99 0.0 0 0 15006.5 17297.4 " />
<path d="M17132 19265
L17132 17297
" />
<path d="M15006 19265
L15006 17297
" />
</g>
<g style="fill:#840000; fill-opacity:0.0; 
stroke:#840000; stroke-width:47.2441; stroke-opacity:1; 
stroke-linecap:round; stroke-linejoin:round;">
</g>
<g style="fill:#840000; fill-opacity:0.0; 
stroke:#840000; stroke-width:59.0551; stroke-opacity:1; 
stroke-linecap:round; stroke-linejoin:round;">
<path d="M17310 17587
L17704 17850
" />
<path d="M17310 17850
L17704 17587
" />
<path d="M17704 18206
L17704 17981
" />
<path d="M17704 18094
L17310 18094
L17366 18056
L17404 18019
L17423 17981
" />
<path d="M17310 18450
L17310 18487
L17329 18525
L17348 18544
L17385 18562
L17460 18581
L17554 18581
L17629 18562
L17666 18544
L17685 18525
L17704 18487
L17704 18450
L17685 18412
L17666 18394
L17629 18375
L17554 18356
L17460 18356
L17385 18375
L17348 18394
L17329 18412
L17310 18450
" />
<path d="M17704 18956
L17704 18731
" />
<path d="M17704 18844
L17310 18844
L17366 18806
L17404 18769
L17423 18731
" />
</g>
<g style="fill:#000000; fill-opacity:0.0; 
stroke:#000000; stroke-width:59.0551; stroke-opacity:1; 
stroke-linecap:round; stroke-linejoin:round;">
</g>
<g style="fill:#840000; fill-opacity:0.0; 
stroke:#840000; stroke-width:59.0551; stroke-opacity:1; 
stroke-linecap:round; stroke-linejoin:round;">
</g>
<g style="fill:#840000; fill-opacity:0.0; 
stroke:#840000; stroke-width:629.921; stroke-opacity:1; 
stroke-linecap:round; stroke-linejoin:round;">
<path d="M33160 15471
L33160 15156
" />
<path d="M32160 15471
L32160 15156
" />
<path d="M31160 15471
L31160 15156
" />
<path d="M30160 15471
L30160 15156
" />
</g>
<g style="fill:#840000; fill-opacity:1.0; 
stroke:#840000; stroke-width:0; stroke-opacity:1; 
stroke-linecap:round; stroke-linejoin:round;">
<circle cx="16069.5" cy="19265.9" r="374.016" /> 
</g>
<g style="fill:#840000; fill-opacity:1.0; 
stroke:#840000; stroke-width:39.3701; stroke-opacity:1; 
stroke-linecap:round; stroke-linejoin:round;">
</g>
<g style="fill:#840000; fill-opacity:1.0; 
stroke:#840000; stroke-width:0; stroke-opacity:1; 
stroke-linecap:round; stroke-linejoin:round;">
<circle cx="16069.5" cy="17297.4" r="374.016" /> 
</g>
<g style="fill:#840000; fill-opacity:1.0; 
stroke:#840000; stroke-width:39.3701; stroke-opacity:1; 
stroke-linecap:round; stroke-linejoin:round;">
</g>
<g style="fill:#840000; fill-opacity:1.0; 
stroke:#840000; stroke-width:0; stroke-opacity:1; 
stroke-linecap:round; stroke-linejoin:round;">
<polyline style="fill-rule:evenodd;"
points="22622,11476
21784,11476
21784,10519
22622,10519
22622,11476
" /> 
</g>
<g style="fill:#840000; fill-opacity:1.0; 
stroke:#840000; stroke-width:837.48; stroke-opacity:1; 
stroke-linecap:round; stroke-linejoin:round;">
</g>
<g style="fill:#840000; fill-opacity:0.0; 
stroke:#840000; stroke-width:837.48; stroke-opacity:1; 
stroke-linecap:round; stroke-linejoin:round;">
<path d="M23203 11058
L23203 10938
" />
<path d="M24203 11058
L24203 10938
" />
<path d="M25203 11058
L25203 10938
" />
<path d="M26203 11058
L26203 10938
" />
</g>
<g style="fill:#840000; fill-opacity:1.0; 
stroke:#840000; stroke-width:0; stroke-opacity:1; 
stroke-linecap:round; stroke-linejoin:round;">
<circle cx="10093.1" cy="13970.6" r="828.74" /> 
</g>
<g style="fill:#840000; fill-opacity:1.0; 
stroke:#840000; stroke-width:39.3701; stroke-opacity:1; 
stroke-linecap:round; stroke-linejoin:round;">
</g>
<g style="fill:#840000; fill-opacity:1.0; 
stroke:#840000; stroke-width:0; stroke-opacity:1; 
stroke-linecap:round; stroke-linejoin:round;">
<circle cx="10093.1" cy="15970.6" r="828.74" /> 
</g>
<g style="fill:#840000; fill-opacity:1.0; 
stroke:#840000; stroke-width:39.3701; stroke-opacity:1; 
stroke-linecap:round; stroke-linejoin:round;">
</g>
<g style="fill:#840000; fill-opacity:1.0; 
stroke:#840000; stroke-width:0; stroke-opacity:1; 
stroke-linecap:round; stroke-linejoin:round;">
<polyline style="fill-rule:evenodd;"
points="9264,11141
10921,11141
10921,12799
9264,12799
9264,11141
" /> 
<circle cx="10093.1" cy="17970.6" r="828.74" /> 
</g>
<g style="fill:#840000; fill-opacity:1.0; 
stroke:#840000; stroke-width:39.3701; stroke-opacity:1; 
stroke-linecap:round; stroke-linejoin:round;">
</g>
<g style="fill:#000000; fill-opacity:1.0; 
stroke:#000000; stroke-width:39.3701; stroke-opacity:1; 
stroke-linecap:round; stroke-linejoin:round;">
</g>
<g style="fill:#840000; fill-opacity:1.0; 
stroke:#840000; stroke-width:39.3701; stroke-opacity:1; 
stroke-linecap:round; stroke-linejoin:round;">
</g>
<g style="fill:#840000; fill-opacity:1.0; 
stroke:#840000; stroke-width:472.441; stroke-opacity:1; 
stroke-linecap:round; stroke-linejoin:round;">
</g>
<g style="fill:#840000; fill-opacity:0.0; 
stroke:#840000; stroke-width:472.441; stroke-opacity:1; 
stroke-linecap:round; stroke-linejoin:round;">
<path d="M33160 15471
L33160 15156
" />
<path d="M32160 15471
L32160 15156
" />
<path d="M31160 15471
L31160 15156
" />
<path d="M30160 15471
L30160 15156
" />
</g>
<g style="fill:#840000; fill-opacity:1.0; 
stroke:#840000; stroke-width:0; stroke-opacity:1; 
stroke-linecap:round; stroke-linejoin:round;">
<circle cx="16069.5" cy="19265.9" r="295.276" /> 
</g>
<g style="fill:#840000; fill-opacity:1.0; 
stroke:#840000; stroke-width:39.3701; stroke-opacity:1; 
stroke-linecap:round; stroke-linejoin:round;">
</g>
<g style="fill:#840000; fill-opacity:1.0; 
stroke:#840000; stroke-width:0; stroke-opacity:1; 
stroke-linecap:round; stroke-linejoin:round;">
<circle cx="16069.5" cy="17297.4" r="295.276" /> 
</g>
<g style="fill:#840000; fill-opacity:1.0; 
stroke:#840000; stroke-width:39.3701; stroke-opacity:1; 
stroke-linecap:round; stroke-linejoin:round;">
</g>
<g style="fill:#840000; fill-opacity:1.0; 
stroke:#840000; stroke-width:0; stroke-opacity:1; 
stroke-linecap:round; stroke-linejoin:round;">
<polyline style="fill-rule:evenodd;"
points="22543,11398
21863,11398
21863,10598
22543,10598
22543,11398
" /> 
</g>
<g style="fill:#840000; fill-opacity:1.0; 
stroke:#840000; stroke-width:680; stroke-opacity:1; 
stroke-linecap:round; stroke-linejoin:round;">
</g>
<g style="fill:#840000; fill-opacity:0.0; 
stroke:#840000; stroke-width:680; stroke-opacity:1; 
stroke-linecap:round; stroke-linejoin:round;">
<path d="M23203 11058
L23203 10938
" />
<path d="M24203 11058
L24203 10938
" />
<path d="M25203 11058
L25203 10938
" />
<path d="M26203 11058
L26203 10938
" />
</g>
<g style="fill:#840000; fill-opacity:1.0; 
stroke:#840000; stroke-width:0; stroke-opacity:1; 
stroke-linecap:round; stroke-linejoin:round;">
<circle cx="10093.1" cy="13970.6" r="750" /> 
</g>
<g style="fill:#840000; fill-opacity:1.0; 
stroke:#840000; stroke-width:39.3701; stroke-opacity:1; 
stroke-linecap:round; stroke-linejoin:round;">
</g>
<g style="fill:#840000; fill-opacity:1.0; 
stroke:#840000; stroke-width:0; stroke-opacity:1; 
stroke-linecap:round; stroke-linejoin:round;">
<circle cx="10093.1" cy="15970.6" r="750" /> 
</g>
<g style="fill:#840000; fill-opacity:1.0; 
stroke:#840000; stroke-width:39.3701; stroke-opacity:1; 
stroke-linecap:round; stroke-linejoin:round;">
</g>
<g style="fill:#840000; fill-opacity:1.0; 
stroke:#840000; stroke-width:0; stroke-opacity:1; 
stroke-linecap:round; stroke-linejoin:round;">
<polyline style="fill-rule:evenodd;"
points="9343,11220
10843,11220
10843,12720
9343,12720
9343,11220
" /> 
<circle cx="10093.1" cy="17970.6" r="750" /> 
</g>
<g style="fill:#840000; fill-opacity:1.0; 
stroke:#840000; stroke-width:39.3701; stroke-opacity:1; 
stroke-linecap:round; stroke-linejoin:round;">
</g>
<g style="fill:#C2C2C2; fill-opacity:1.0; 
stroke:#C2C2C2; stroke-width:39.3701; stroke-opacity:1; 
stroke-linecap:round; stroke-linejoin:round;">
</g>
<g style="fill:#C2C2C2; fill-opacity:1.0; 
stroke:#C2C2C2; stroke-width:0; stroke-opacity:1; 
stroke-linecap:round; stroke-linejoin:round;">
<circle cx="22939.6" cy="15947" r="236.22" /> 
</g>
<g style="fill:#C2C2C2; fill-opacity:1.0; 
stroke:#C2C2C2; stroke-width:39.3701; stroke-opacity:1; 
stroke-linecap:round; stroke-linejoin:round;">
</g>
<g style="fill:#C2C2C2; fill-opacity:1.0; 
stroke:#C2C2C2; stroke-width:0; stroke-opacity:1; 
stroke-linecap:round; stroke-linejoin:round;">
<circle cx="27160.1" cy="17061.2" r="295.276" /> 
</g>
<g style="fill:#C2C2C2; fill-opacity:1.0; 
stroke:#C2C2C2; stroke-width:39.3701; stroke-opacity:1; 
stroke-linecap:round; stroke-linejoin:round;">
</g>
<g style="fill:#C2C2C2; fill-opacity:1.0; 
stroke:#C2C2C2; stroke-width:0; stroke-opacity:1; 
stroke-linecap:round; stroke-linejoin:round;">
<circle cx="33845.1" cy="10608.4" r="295.276" /> 
</g>
<g style="fill:#C2C2C2; fill-opacity:1.0; 
stroke:#C2C2C2; stroke-width:39.3701; stroke-opacity:1; 
stroke-linecap:round; stroke-linejoin:round;">
</g>
<g style="fill:#C2C2C2; fill-opacity:1.0; 
stroke:#C2C2C2; stroke-width:0; stroke-opacity:1; 
stroke-linecap:round; stroke-linejoin:round;">
<circle cx="31309.7" cy="13502.1" r="295.276" /> 
</g>
<g style="fill:#C2C2C2; fill-opacity:1.0; 
stroke:#C2C2C2; stroke-width:39.3701; stroke-opacity:1; 
stroke-linecap:round; stroke-linejoin:round;">
</g>
<g style="fill:#C2C2C2; fill-opacity:1.0; 
stroke:#C2C2C2; stroke-width:0; stroke-opacity:1; 
stroke-linecap:round; stroke-linejoin:round;">
<circle cx="33160.1" cy="13613.9" r="236.22" /> 
</g>
<g style="fill:#C2C2C2; fill-opacity:1.0; 
stroke:#C2C2C2; stroke-width:39.3701; stroke-opacity:1; 
stroke-linecap:round; stroke-linejoin:round;">
</g>
<g style="fill:#C2C2C2; fill-opacity:1.0; 
stroke:#C2C2C2; stroke-width:0; stroke-opacity:1; 
stroke-linecap:round; stroke-linejoin:round;">
<circle cx="27545.9" cy="10982.4" r="295.276" /> 
</g>
<g style="fill:#C2C2C2; fill-opacity:1.0; 
stroke:#C2C2C2; stroke-width:39.3701; stroke-opacity:1; 
stroke-linecap:round; stroke-linejoin:round;">
</g>
<g style="fill:#C2C2C2; fill-opacity:1.0; 
stroke:#C2C2C2; stroke-width:0; stroke-opacity:1; 
stroke-linecap:round; stroke-linejoin:round;">
<circle cx="17463.2" cy="14179.3" r="295.276" /> 
</g>
<g style="fill:#C2C2C2; fill-opacity:1.0; 
stroke:#C2C2C2; stroke-width:39.3701; stroke-opacity:1; 
stroke-linecap:round; stroke-linejoin:round;">
</g>
<g style="fill:#C2C2C2; fill-opacity:1.0; 
stroke:#C2C2C2; stroke-width:0; stroke-opacity:1; 
stroke-linecap:round; stroke-linejoin:round;">
<circle cx="12380.5" cy="11915.5" r="295.276" /> 
</g>
<g style="fill:#C2C2C2; fill-opacity:1.0; 
stroke:#C2C2C2; stroke-width:39.3701; stroke-opacity:1; 
stroke-linecap:round; stroke-linejoin:round;">
</g>
<g style="fill:#C2C2C2; fill-opacity:1.0; 
stroke:#C2C2C2; stroke-width:0; stroke-opacity:1; 
stroke-linecap:round; stroke-linejoin:round;">
<circle cx="23560.1" cy="14313.9" r="236.22" /> 
</g>
<g style="fill:#C2C2C2; fill-opacity:1.0; 
stroke:#C2C2C2; stroke-width:39.3701; stroke-opacity:1; 
stroke-linecap:round; stroke-linejoin:round;">
</g>
<g style="fill:#C2C2C2; fill-opacity:1.0; 
stroke:#C2C2C2; stroke-width:0; stroke-opacity:1; 
stroke-linecap:round; stroke-linejoin:round;">
<circle cx="23360.1" cy="15213.9" r="236.22" /> 
</g>
<g style="fill:#C2C2C2; fill-opacity:1.0; 
stroke:#C2C2C2; stroke-width:39.3701; stroke-opacity:1; 
stroke-linecap:round; stroke-linejoin:round;">
</g>
<g style="fill:#C2C2C2; fill-opacity:1.0; 
stroke:#C2C2C2; stroke-width:0; stroke-opacity:1; 
stroke-linecap:round; stroke-linejoin:round;">
<circle cx="12093.1" cy="15978.5" r="295.276" /> 
</g>
<g style="fill:#C2C2C2; fill-opacity:1.0; 
stroke:#C2C2C2; stroke-width:39.3701; stroke-opacity:1; 
stroke-linecap:round; stroke-linejoin:round;">
</g>
<g style="fill:#C2C2C2; fill-opacity:1.0; 
stroke:#C2C2C2; stroke-width:0; stroke-opacity:1; 
stroke-linecap:round; stroke-linejoin:round;">
<circle cx="12034.1" cy="17974.5" r="295.276" /> 
</g>
<g style="fill:#C2C2C2; fill-opacity:1.0; 
stroke:#C2C2C2; stroke-width:39.3701; stroke-opacity:1; 
stroke-linecap:round; stroke-linejoin:round;">
</g>
<g style="fill:#008400; fill-opacity:1.0; 
stroke:#008400; stroke-width:39.3701; stroke-opacity:1; 
stroke-linecap:round; stroke-linejoin:round;">
</g>
<g style="fill:#008400; fill-opacity:1.0; 
stroke:#008400; stroke-width:314.961; stroke-opacity:1; 
stroke-linecap:round; stroke-linejoin:round;">
</g>
<g style="fill:#008400; fill-opacity:0.0; 
stroke:#008400; stroke-width:314.961; stroke-opacity:1; 
stroke-linecap:round; stroke-linejoin:round;">
<path d="M22939 15946
L22951 15946
" />
<path d="M24065 17061
L27160 17061
" />
<path d="M22951 15946
L24065 17061
" />
<path d="M31309 13502
L31548 13502
" />
<path d="M32160 14113
L32160 15313
" />
<path d="M31548 13502
L32160 14113
" />
<path d="M22203 10998
L22203 10639
" />
<path d="M22203 10639
L22715 10128
" />
<path d="M33845 10234
L33845 10608
" />
<path d="M33589 9978
L33845 10234
" />
<path d="M27018 9978
L33589 9978
" />
<path d="M26868 10128
L27018 9978
" />
<path d="M22715 10128
L26868 10128
" />
<path d="M10093 13970
L16250 13970
" />
<path d="M19223 10998
L22203 10998
" />
<path d="M16250 13970
L19223 10998
" />
<path d="M33845 10966
L33845 10608
" />
<path d="M31309 13502
L33845 10966
" />
<path d="M33160 13613
L33160 15313
" />
<path d="M27530 10998
L27530 12273
" />
<path d="M27545 10982
L27530 10998
" />
<path d="M19256 12385
L23638 12385
" />
<path d="M17463 14179
L19256 12385
" />
<path d="M27530 12273
L27408 12395
" />
<path d="M27408 12395
L23648 12395
" />
<path d="M23648 12395
L23638 12385
" />
<path d="M23203 11950
L23203 10998
" />
<path d="M23638 12385
L23203 11950
" />
<path d="M10093 11970
L12325 11970
" />
<path d="M12325 11970
L12380 11915
" />
<path d="M23560 14313
L29460 14313
" />
<path d="M29460 14313
L30160 15013
" />
<path d="M30160 15013
L30160 15313
" />
<path d="M31160 15813
L31160 15313
" />
<path d="M30560 16413
L31160 15813
" />
<path d="M29560 16413
L30560 16413
" />
<path d="M28460 15313
L29560 16413
" />
<path d="M23460 15313
L28460 15313
" />
<path d="M23360 15213
L23460 15313
" />
<path d="M12085 15970
L10093 15970
" />
<path d="M12093 15978
L12085 15970
" />
<path d="M10093 17970
L12030 17970
" />
<path d="M12030 17970
L12034 17974
" />
</g>
<g style="fill:#008400; fill-opacity:1.0; 
stroke:#008400; stroke-width:393.701; stroke-opacity:1; 
stroke-linecap:round; stroke-linejoin:round;">
<polyline style="fill-rule:evenodd;"
points="29825,13675
29746,13622
29460,13565
25388,13565
25388,11971
25559,11937
25703,11841
25847,11937
26203,12008
26559,11937
26861,11735
27063,11433
27133,11077
27133,10918
27115,10827
27154,10819
27293,10726
29825,10726
29825,13675
" /> 
<polyline style="fill-rule:evenodd;"
points="22343,10562
22272,10918
22272,11077
22343,11433
22455,11600
22455,11637
19256,11637
18970,11694
18727,11857
17291,13293
17287,13293
16962,13427
16712,13676
16577,14002
16577,14354
16711,14680
16960,14929
17286,15064
17638,15065
17964,14930
18213,14681
18348,14356
18348,14351
19566,13133
23598,13133
23648,13143
24439,13143
24439,13565
23914,13565
23725,13487
23396,13487
23092,13612
22859,13844
22733,14148
22733,14477
22789,14614
22659,14744
22533,15048
22533,15220
22471,15245
22239,15478
22112,15781
22112,16110
22238,16414
22470,16647
22681,16735
23536,17590
23779,17752
24065,17809
26655,17809
26657,17811
26983,17946
27335,17947
27661,17812
27910,17563
28045,17238
28046,16885
27911,16560
27662,16310
27337,16175
26984,16175
26658,16309
26655,16313
24375,16313
24124,16061
28150,16061
29031,16942
29273,17105
29560,17161
30560,17161
30846,17105
31088,16942
31688,16342
31746,16256
31851,16100
31903,15837
31923,15807
31986,15490
31986,15137
31923,14820
31744,14552
31476,14373
31160,14310
30843,14373
30801,14401
30801,10374
33835,10374
33835,13120
33628,12913
33325,12787
32996,12787
32692,12912
32459,13144
32333,13448
32333,13777
32412,13968
32412,14797
32396,14820
32333,15137
32333,15490
32396,15807
32575,16075
32843,16254
33160,16317
33476,16254
33744,16075
33835,15939
33835,20193
18853,20193
18955,15699
18940,15619
18896,15554
18830,15511
18753,15498
14395,15604
14298,15632
14241,15685
14208,15756
14141,16041
14083,16099
14041,16161
14026,16238
14026,20193
9000,20193
9000,18773
9332,19106
9825,19310
10358,19311
10851,19107
11228,18730
11234,18718
11525,18718
11531,18725
11857,18860
12209,18860
12535,18725
12784,18476
12919,18151
12920,17799
12785,17473
12536,17224
12211,17088
11858,17088
11534,17222
11234,17222
11230,17212
10988,16970
11228,16730
11234,16718
11580,16718
11590,16729
11916,16864
12268,16864
12594,16729
12843,16480
12978,16155
12979,15803
12844,15477
12595,15227
12270,15092
11917,15092
11602,15222
11234,15222
11230,15212
10853,14834
10360,14630
9827,14629
9334,14833
9000,15167
9000,13201
9108,13275
9343,13322
10843,13322
11061,13281
11262,13152
11397,12954
11445,12720
11445,12718
12004,12718
12203,12801
12555,12801
12881,12666
13131,12417
13266,12092
13266,11740
13131,11414
12882,11164
12557,11029
12205,11029
11879,11164
11820,11222
11445,11222
11445,11220
11404,11001
11274,10800
11077,10665
10843,10618
9343,10618
9124,10659
9000,10739
9000,10374
22469,10374
22343,10562
" /> 
</g>
<g style="fill:#FFFFFF; fill-opacity:1.0; 
stroke:#FFFFFF; stroke-width:393.701; stroke-opacity:1; 
stroke-linecap:round; stroke-linejoin:round;">
</g>
<g style="fill:#FFFFFF; fill-opacity:1.0; 
stroke:#FFFFFF; stroke-width:0; stroke-opacity:1; 
stroke-linecap:round; stroke-linejoin:round;">
<circle cx="22939.6" cy="15947" r="137.795" /> 
</g>
<g style="fill:#FFFFFF; fill-opacity:1.0; 
stroke:#FFFFFF; stroke-width:39.3701; stroke-opacity:1; 
stroke-linecap:round; stroke-linejoin:round;">
</g>
<g style="fill:#FFFFFF; fill-opacity:1.0; 
stroke:#FFFFFF; stroke-width:0; stroke-opacity:1; 
stroke-linecap:round; stroke-linejoin:round;">
<circle cx="27160.1" cy="17061.2" r="137.795" /> 
</g>
<g style="fill:#FFFFFF; fill-opacity:1.0; 
stroke:#FFFFFF; stroke-width:39.3701; stroke-opacity:1; 
stroke-linecap:round; stroke-linejoin:round;">
</g>
<g style="fill:#FFFFFF; fill-opacity:1.0; 
stroke:#FFFFFF; stroke-width:0; stroke-opacity:1; 
stroke-linecap:round; stroke-linejoin:round;">
<circle cx="33845.1" cy="10608.4" r="137.795" /> 
</g>
<g style="fill:#FFFFFF; fill-opacity:1.0; 
stroke:#FFFFFF; stroke-width:39.3701; stroke-opacity:1; 
stroke-linecap:round; stroke-linejoin:round;">
</g>
<g style="fill:#FFFFFF; fill-opacity:1.0; 
stroke:#FFFFFF; stroke-width:0; stroke-opacity:1; 
stroke-linecap:round; stroke-linejoin:round;">
<circle cx="31309.7" cy="13502.1" r="137.795" /> 
</g>
<g style="fill:#FFFFFF; fill-opacity:1.0; 
stroke:#FFFFFF; stroke-width:39.3701; stroke-opacity:1; 
stroke-linecap:round; stroke-linejoin:round;">
</g>
<g style="fill:#FFFFFF; fill-opacity:1.0; 
stroke:#FFFFFF; stroke-width:0; stroke-opacity:1; 
stroke-linecap:round; stroke-linejoin:round;">
<circle cx="33160.1" cy="13613.9" r="137.795" /> 
</g>
<g style="fill:#FFFFFF; fill-opacity:1.0; 
stroke:#FFFFFF; stroke-width:39.3701; stroke-opacity:1; 
stroke-linecap:round; stroke-linejoin:round;">
</g>
<g style="fill:#FFFFFF; fill-opacity:1.0; 
stroke:#FFFFFF; stroke-width:0; stroke-opacity:1; 
stroke-linecap:round; stroke-linejoin:round;">
<circle cx="27545.9" cy="10982.4" r="137.795" /> 
</g>
<g style="fill:#FFFFFF; fill-opacity:1.0; 
stroke:#FFFFFF; stroke-width:39.3701; stroke-opacity:1; 
stroke-linecap:round; stroke-linejoin:round;">
</g>
<g style="fill:#FFFFFF; fill-opacity:1.0; 
stroke:#FFFFFF; stroke-width:0; stroke-opacity:1; 
stroke-linecap:round; stroke-linejoin:round;">
<circle cx="17463.2" cy="14179.3" r="137.795" /> 
</g>
<g style="fill:#FFFFFF; fill-opacity:1.0; 
stroke:#FFFFFF; stroke-width:39.3701; stroke-opacity:1; 
stroke-linecap:round; stroke-linejoin:round;">
</g>
<g style="fill:#FFFFFF; fill-opacity:1.0; 
stroke:#FFFFFF; stroke-width:0; stroke-opacity:1; 
stroke-linecap:round; stroke-linejoin:round;">
<circle cx="12380.5" cy="11915.5" r="137.795" /> 
</g>
<g style="fill:#FFFFFF; fill-opacity:1.0; 
stroke:#FFFFFF; stroke-width:39.3701; stroke-opacity:1; 
stroke-linecap:round; stroke-linejoin:round;">
</g>
<g style="fill:#FFFFFF; fill-opacity:1.0; 
stroke:#FFFFFF; stroke-width:0; stroke-opacity:1; 
stroke-linecap:round; stroke-linejoin:round;">
<circle cx="23560.1" cy="14313.9" r="137.795" /> 
</g>
<g style="fill:#FFFFFF; fill-opacity:1.0; 
stroke:#FFFFFF; stroke-width:39.3701; stroke-opacity:1; 
stroke-linecap:round; stroke-linejoin:round;">
</g>
<g style="fill:#FFFFFF; fill-opacity:1.0; 
stroke:#FFFFFF; stroke-width:0; stroke-opacity:1; 
stroke-linecap:round; stroke-linejoin:round;">
<circle cx="23360.1" cy="15213.9" r="137.795" /> 
</g>
<g style="fill:#FFFFFF; fill-opacity:1.0; 
stroke:#FFFFFF; stroke-width:39.3701; stroke-opacity:1; 
stroke-linecap:round; stroke-linejoin:round;">
</g>
<g style="fill:#FFFFFF; fill-opacity:1.0; 
stroke:#FFFFFF; stroke-width:0; stroke-opacity:1; 
stroke-linecap:round; stroke-linejoin:round;">
<circle cx="12093.1" cy="15978.5" r="137.795" /> 
</g>
<g style="fill:#FFFFFF; fill-opacity:1.0; 
stroke:#FFFFFF; stroke-width:39.3701; stroke-opacity:1; 
stroke-linecap:round; stroke-linejoin:round;">
</g>
<g style="fill:#FFFFFF; fill-opacity:1.0; 
stroke:#FFFFFF; stroke-width:0; stroke-opacity:1; 
stroke-linecap:round; stroke-linejoin:round;">
<circle cx="12034.1" cy="17974.5" r="137.795" /> 
</g>
<g style="fill:#FFFFFF; fill-opacity:1.0; 
stroke:#FFFFFF; stroke-width:39.3701; stroke-opacity:1; 
stroke-linecap:round; stroke-linejoin:round;">
</g>
<g style="fill:#FFFFFF; fill-opacity:1.0; 
stroke:#FFFFFF; stroke-width:0; stroke-opacity:1; 
stroke-linecap:round; stroke-linejoin:round;">
<circle cx="33160.1" cy="15313.9" r="157.48" /> 
</g>
<g style="fill:#FFFFFF; fill-opacity:1.0; 
stroke:#FFFFFF; stroke-width:39.3701; stroke-opacity:1; 
stroke-linecap:round; stroke-linejoin:round;">
</g>
<g style="fill:#FFFFFF; fill-opacity:1.0; 
stroke:#FFFFFF; stroke-width:0; stroke-opacity:1; 
stroke-linecap:round; stroke-linejoin:round;">
<circle cx="32160.1" cy="15313.9" r="157.48" /> 
</g>
<g style="fill:#FFFFFF; fill-opacity:1.0; 
stroke:#FFFFFF; stroke-width:39.3701; stroke-opacity:1; 
stroke-linecap:round; stroke-linejoin:round;">
</g>
<g style="fill:#FFFFFF; fill-opacity:1.0; 
stroke:#FFFFFF; stroke-width:0; stroke-opacity:1; 
stroke-linecap:round; stroke-linejoin:round;">
<circle cx="31160.1" cy="15313.9" r="157.48" /> 
</g>
<g style="fill:#FFFFFF; fill-opacity:1.0; 
stroke:#FFFFFF; stroke-width:39.3701; stroke-opacity:1; 
stroke-linecap:round; stroke-linejoin:round;">
</g>
<g style="fill:#FFFFFF; fill-opacity:1.0; 
stroke:#FFFFFF; stroke-width:0; stroke-opacity:1; 
stroke-linecap:round; stroke-linejoin:round;">
<circle cx="30160.1" cy="15313.9" r="157.48" /> 
</g>
<g style="fill:#FFFFFF; fill-opacity:1.0; 
stroke:#FFFFFF; stroke-width:39.3701; stroke-opacity:1; 
stroke-linecap:round; stroke-linejoin:round;">
</g>
<g style="fill:#FFFFFF; fill-opacity:1.0; 
stroke:#FFFFFF; stroke-width:0; stroke-opacity:1; 
stroke-linecap:round; stroke-linejoin:round;">
<circle cx="16069.5" cy="19265.9" r="157.48" /> 
</g>
<g style="fill:#FFFFFF; fill-opacity:1.0; 
stroke:#FFFFFF; stroke-width:39.3701; stroke-opacity:1; 
stroke-linecap:round; stroke-linejoin:round;">
</g>
<g style="fill:#FFFFFF; fill-opacity:1.0; 
stroke:#FFFFFF; stroke-width:0; stroke-opacity:1; 
stroke-linecap:round; stroke-linejoin:round;">
<circle cx="16069.5" cy="17297.4" r="157.48" /> 
</g>
<g style="fill:#FFFFFF; fill-opacity:1.0; 
stroke:#FFFFFF; stroke-width:39.3701; stroke-opacity:1; 
stroke-linecap:round; stroke-linejoin:round;">
</g>
<g style="fill:#FFFFFF; fill-opacity:1.0; 
stroke:#FFFFFF; stroke-width:0; stroke-opacity:1; 
stroke-linecap:round; stroke-linejoin:round;">
<circle cx="22203.4" cy="10998.2" r="200" /> 
</g>
<g style="fill:#FFFFFF; fill-opacity:1.0; 
stroke:#FFFFFF; stroke-width:39.3701; stroke-opacity:1; 
stroke-linecap:round; stroke-linejoin:round;">
</g>
<g style="fill:#FFFFFF; fill-opacity:1.0; 
stroke:#FFFFFF; stroke-width:0; stroke-opacity:1; 
stroke-linecap:round; stroke-linejoin:round;">
<circle cx="23203.4" cy="10998.2" r="200" /> 
</g>
<g style="fill:#FFFFFF; fill-opacity:1.0; 
stroke:#FFFFFF; stroke-width:39.3701; stroke-opacity:1; 
stroke-linecap:round; stroke-linejoin:round;">
</g>
<g style="fill:#FFFFFF; fill-opacity:1.0; 
stroke:#FFFFFF; stroke-width:0; stroke-opacity:1; 
stroke-linecap:round; stroke-linejoin:round;">
<circle cx="24203.4" cy="10998.2" r="200" /> 
</g>
<g style="fill:#FFFFFF; fill-opacity:1.0; 
stroke:#FFFFFF; stroke-width:39.3701; stroke-opacity:1; 
stroke-linecap:round; stroke-linejoin:round;">
</g>
<g style="fill:#FFFFFF; fill-opacity:1.0; 
stroke:#FFFFFF; stroke-width:0; stroke-opacity:1; 
stroke-linecap:round; stroke-linejoin:round;">
<circle cx="25203.4" cy="10998.2" r="200" /> 
</g>
<g style="fill:#FFFFFF; fill-opacity:1.0; 
stroke:#FFFFFF; stroke-width:39.3701; stroke-opacity:1; 
stroke-linecap:round; stroke-linejoin:round;">
</g>
<g style="fill:#FFFFFF; fill-opacity:1.0; 
stroke:#FFFFFF; stroke-width:0; stroke-opacity:1; 
stroke-linecap:round; stroke-linejoin:round;">
<circle cx="26203.4" cy="10998.2" r="200" /> 
</g>
<g style="fill:#FFFFFF; fill-opacity:1.0; 
stroke:#FFFFFF; stroke-width:39.3701; stroke-opacity:1; 
stroke-linecap:round; stroke-linejoin:round;">
</g>
<g style="fill:#FFFFFF; fill-opacity:1.0; 
stroke:#FFFFFF; stroke-width:0; stroke-opacity:1; 
stroke-linecap:round; stroke-linejoin:round;">
<circle cx="10093.1" cy="13970.6" r="300" /> 
</g>
<g style="fill:#FFFFFF; fill-opacity:1.0; 
stroke:#FFFFFF; stroke-width:39.3701; stroke-opacity:1; 
stroke-linecap:round; stroke-linejoin:round;">
</g>
<g style="fill:#FFFFFF; fill-opacity:1.0; 
stroke:#FFFFFF; stroke-width:0; stroke-opacity:1; 
stroke-linecap:round; stroke-linejoin:round;">
<circle cx="10093.1" cy="15970.6" r="300" /> 
</g>
<g style="fill:#FFFFFF; fill-opacity:1.0; 
stroke:#FFFFFF; stroke-width:39.3701; stroke-opacity:1; 
stroke-linecap:round; stroke-linejoin:round;">
</g>
<g style="fill:#FFFFFF; fill-opacity:1.0; 
stroke:#FFFFFF; stroke-width:0; stroke-opacity:1; 
stroke-linecap:round; stroke-linejoin:round;">
<circle cx="10093.1" cy="11970.6" r="300" /> 
</g>
<g style="fill:#FFFFFF; fill-opacity:1.0; 
stroke:#FFFFFF; stroke-width:39.3701; stroke-opacity:1; 
stroke-linecap:round; stroke-linejoin:round;">
</g>
<g style="fill:#FFFFFF; fill-opacity:1.0; 
stroke:#FFFFFF; stroke-width:0; stroke-opacity:1; 
stroke-linecap:round; stroke-linejoin:round;">
<circle cx="10093.1" cy="17970.6" r="300" /> 
</g>
<g style="fill:#FFFFFF; fill-opacity:1.0; 
stroke:#FFFFFF; stroke-width:39.3701; stroke-opacity:1; 
stroke-linecap:round; stroke-linejoin:round;">
</g>
<g style="fill:#000000; fill-opacity:1.0; 
stroke:#000000; stroke-width:39.3701; stroke-opacity:1; 
stroke-linecap:round; stroke-linejoin:round;">
</g>
<g style="fill:#840000; fill-opacity:1.0; 
stroke:#840000; stroke-width:39.3701; stroke-opacity:1; 
stroke-linecap:round; stroke-linejoin:round;">
</g>
<g style="fill:#840000; fill-opacity:1.0; 
stroke:#840000; stroke-width:472.441; stroke-opacity:1; 
stroke-linecap:round; stroke-linejoin:round;">
</g>
<g style="fill:#840000; fill-opacity:0.0; 
stroke:#840000; stroke-width:472.441; stroke-opacity:1; 
stroke-linecap:round; stroke-linejoin:round;">
<path d="M33160 15471
L33160 15156
" />
<path d="M32160 15471
L32160 15156
" />
<path d="M31160 15471
L31160 15156
" />
<path d="M30160 15471
L30160 15156
" />
</g>
<g style="fill:#840000; fill-opacity:0.0; 
stroke:#840000; stroke-width:0; stroke-opacity:1; 
stroke-linecap:round; stroke-linejoin:round;">
</g>
<g style="fill:#840000; fill-opacity:1.0; 
stroke:#840000; stroke-width:0; stroke-opacity:1; 
stroke-linecap:round; stroke-linejoin:round;">
<polyline style="fill-rule:evenodd;"
points="15660,19057
15660,19411
15187,19411
15187,19057
15660,19057
" /> 
<polyline style="fill-rule:evenodd;"
points="14793,19057
14793,19411
14321,19411
14321,19057
14793,19057
" /> 
<polyline style="fill-rule:evenodd;"
points="15703,17120
15703,17474
15230,17474
15230,17120
15703,17120
" /> 
<polyline style="fill-rule:evenodd;"
points="14837,17120
14837,17474
14364,17474
14364,17120
14837,17120
" /> 
<polyline style="fill-rule:evenodd;"
points="22927,13698
22927,14210
22337,14210
22337,13698
22927,13698
" /> 
<polyline style="fill-rule:evenodd;"
points="21864,13698
21864,14210
21274,14210
21274,13698
21864,13698
" /> 
<polyline style="fill-rule:evenodd;"
points="17545,15171
17545,14935
18333,14935
18333,15171
17545,15171
" /> 
<polyline style="fill-rule:evenodd;"
points="17545,15671
17545,15435
18333,15435
18333,15671
17545,15671
" /> 
<polyline style="fill-rule:evenodd;"
points="17545,16171
17545,15935
18333,15935
18333,16171
17545,16171
" /> 
<polyline style="fill-rule:evenodd;"
points="17545,16671
17545,16435
18333,16435
18333,16671
17545,16671
" /> 
<polyline style="fill-rule:evenodd;"
points="17545,17171
17545,16935
18333,16935
18333,17171
17545,17171
" /> 
<polyline style="fill-rule:evenodd;"
points="17545,17671
17545,17435
18333,17435
18333,17671
17545,17671
" /> 
<polyline style="fill-rule:evenodd;"
points="17545,18171
17545,17935
18333,17935
18333,18171
17545,18171
" /> 
<polyline style="fill-rule:evenodd;"
points="17545,18671
17545,18435
18333,18435
18333,18671
17545,18671
" /> 
<polyline style="fill-rule:evenodd;"
points="17545,19171
17545,18935
18333,18935
18333,19171
17545,19171
" /> 
<polyline style="fill-rule:evenodd;"
points="21246,19171
21246,18935
22034,18935
22034,19171
21246,19171
" /> 
<polyline style="fill-rule:evenodd;"
points="21246,18671
21246,18435
22034,18435
22034,18671
21246,18671
" /> 
<polyline style="fill-rule:evenodd;"
points="21246,18171
21246,17935
22034,17935
22034,18171
21246,18171
" /> 
<polyline style="fill-rule:evenodd;"
points="21246,17671
21246,17435
22034,17435
22034,17671
21246,17671
" /> 
<polyline style="fill-rule:evenodd;"
points="21246,17171
21246,16935
22034,16935
22034,17171
21246,17171
" /> 
<polyline style="fill-rule:evenodd;"
points="21246,16671
21246,16435
22034,16435
22034,16671
21246,16671
" /> 
<polyline style="fill-rule:evenodd;"
points="21246,16171
21246,15935
22034,15935
22034,16171
21246,16171
" /> 
<polyline style="fill-rule:evenodd;"
points="21246,15671
21246,15435
22034,15435
22034,15671
21246,15671
" /> 
<polyline style="fill-rule:evenodd;"
points="21246,15171
21246,14935
22034,14935
22034,15171
21246,15171
" /> 
<polyline style="fill-rule:evenodd;"
points="16642,14830
16642,15067
16032,15067
16032,14830
16642,14830
" /> 
<polyline style="fill-rule:evenodd;"
points="16642,14330
16642,14567
16032,14567
16032,14330
16642,14330
" /> 
<polyline style="fill-rule:evenodd;"
points="16642,13830
16642,14067
16032,14067
16032,13830
16642,13830
" /> 
<polyline style="fill-rule:evenodd;"
points="16642,13330
16642,13567
16032,13567
16032,13330
16642,13330
" /> 
<polyline style="fill-rule:evenodd;"
points="14516,13330
14516,13567
13906,13567
13906,13330
14516,13330
" /> 
<polyline style="fill-rule:evenodd;"
points="14516,13830
14516,14067
13906,14067
13906,13830
14516,13830
" /> 
<polyline style="fill-rule:evenodd;"
points="14516,14330
14516,14567
13906,14567
13906,14330
14516,14330
" /> 
<polyline style="fill-rule:evenodd;"
points="14516,14830
14516,15067
13906,15067
13906,14830
14516,14830
" /> 
<circle cx="16069.5" cy="19265.9" r="295.276" /> 
</g>
<g style="fill:#840000; fill-opacity:1.0; 
stroke:#840000; stroke-width:39.3701; stroke-opacity:1; 
stroke-linecap:round; stroke-linejoin:round;">
</g>
<g style="fill:#840000; fill-opacity:1.0; 
stroke:#840000; stroke-width:0; stroke-opacity:1; 
stroke-linecap:round; stroke-linejoin:round;">
<circle cx="16069.5" cy="17297.4" r="295.276" /> 
</g>
<g style="fill:#840000; fill-opacity:1.0; 
stroke:#840000; stroke-width:39.3701; stroke-opacity:1; 
stroke-linecap:round; stroke-linejoin:round;">
</g>
<g style="fill:#840000; fill-opacity:1.0; 
stroke:#840000; stroke-width:0; stroke-opacity:1; 
stroke-linecap:round; stroke-linejoin:round;">
<polyline style="fill-rule:evenodd;"
points="19829,14228
19829,13736
20223,13736
20223,14228
19829,14228
" /> 
<polyline style="fill-rule:evenodd;"
points="20616,14228
20616,13736
21010,13736
21010,14228
20616,14228
" /> 
<polyline style="fill-rule:evenodd;"
points="20167,13011
20167,12519
20561,12519
20561,13011
20167,13011
" /> 
<polyline style="fill-rule:evenodd;"
points="20955,13011
20955,12519
21349,12519
21349,13011
20955,13011
" /> 
<polyline style="fill-rule:evenodd;"
points="14896,12968
14896,12476
15289,12476
15289,12968
14896,12968
" /> 
<polyline style="fill-rule:evenodd;"
points="15683,12968
15683,12476
16077,12476
16077,12968
15683,12968
" /> 
<polyline style="fill-rule:evenodd;"
points="32030,10862
32030,10370
32423,10370
32423,10862
32030,10862
" /> 
<polyline style="fill-rule:evenodd;"
points="32817,10862
32817,10370
33211,10370
33211,10862
32817,10862
" /> 
<polyline style="fill-rule:evenodd;"
points="24742,19256
24742,18763
25136,18763
25136,19256
24742,19256
" /> 
<polyline style="fill-rule:evenodd;"
points="25530,19256
25530,18763
25923,18763
25923,19256
25530,19256
" /> 
<polyline style="fill-rule:evenodd;"
points="32055,11443
32547,11443
32547,11836
32055,11836
32055,11443
" /> 
<polyline style="fill-rule:evenodd;"
points="32055,12230
32547,12230
32547,12624
32055,12624
32055,12230
" /> 
<polyline style="fill-rule:evenodd;"
points="22543,11398
21863,11398
21863,10598
22543,10598
22543,11398
" /> 
</g>
<g style="fill:#840000; fill-opacity:1.0; 
stroke:#840000; stroke-width:680; stroke-opacity:1; 
stroke-linecap:round; stroke-linejoin:round;">
</g>
<g style="fill:#840000; fill-opacity:0.0; 
stroke:#840000; stroke-width:680; stroke-opacity:1; 
stroke-linecap:round; stroke-linejoin:round;">
<path d="M23203 11058
L23203 10938
" />
<path d="M24203 11058
L24203 10938
" />
<path d="M25203 11058
L25203 10938
" />
<path d="M26203 11058
L26203 10938
" />
</g>
<g style="fill:#840000; fill-opacity:0.0; 
stroke:#840000; stroke-width:0; stroke-opacity:1; 
stroke-linecap:round; stroke-linejoin:round;">
</g>
<g style="fill:#840000; fill-opacity:1.0; 
stroke:#840000; stroke-width:0; stroke-opacity:1; 
stroke-linecap:round; stroke-linejoin:round;">
<polyline style="fill-rule:evenodd;"
points="24502,13549
23990,13549
23990,12958
24502,12958
24502,13549
" /> 
<polyline style="fill-rule:evenodd;"
points="24502,12486
23990,12486
23990,11895
24502,11895
24502,12486
" /> 
<polyline style="fill-rule:evenodd;"
points="26782,17962
26782,18198
26191,18198
26191,17962
26782,17962
" /> 
<polyline style="fill-rule:evenodd;"
points="26782,17462
26782,17698
26191,17698
26191,17462
26782,17462
" /> 
<polyline style="fill-rule:evenodd;"
points="26782,16962
26782,17198
26191,17198
26191,16962
26782,16962
" /> 
<polyline style="fill-rule:evenodd;"
points="26782,16462
26782,16698
26191,16698
26191,16462
26782,16462
" /> 
<polyline style="fill-rule:evenodd;"
points="26782,15962
26782,16198
26191,16198
26191,15962
26782,15962
" /> 
<polyline style="fill-rule:evenodd;"
points="26782,15462
26782,15698
26191,15698
26191,15462
26782,15462
" /> 
<polyline style="fill-rule:evenodd;"
points="26782,14962
26782,15198
26191,15198
26191,14962
26782,14962
" /> 
<polyline style="fill-rule:evenodd;"
points="24656,14962
24656,15198
24065,15198
24065,14962
24656,14962
" /> 
<polyline style="fill-rule:evenodd;"
points="24656,15462
24656,15698
24065,15698
24065,15462
24656,15462
" /> 
<polyline style="fill-rule:evenodd;"
points="24656,15962
24656,16198
24065,16198
24065,15962
24656,15962
" /> 
<polyline style="fill-rule:evenodd;"
points="24656,16462
24656,16698
24065,16698
24065,16462
24656,16462
" /> 
<polyline style="fill-rule:evenodd;"
points="24656,16962
24656,17198
24065,17198
24065,16962
24656,16962
" /> 
<polyline style="fill-rule:evenodd;"
points="24656,17462
24656,17698
24065,17698
24065,17462
24656,17462
" /> 
<polyline style="fill-rule:evenodd;"
points="24656,17962
24656,18198
24065,18198
24065,17962
24656,17962
" /> 
<circle cx="10093.1" cy="13970.6" r="750" /> 
</g>
<g style="fill:#840000; fill-opacity:1.0; 
stroke:#840000; stroke-width:39.3701; stroke-opacity:1; 
stroke-linecap:round; stroke-linejoin:round;">
</g>
<g style="fill:#840000; fill-opacity:1.0; 
stroke:#840000; stroke-width:0; stroke-opacity:1; 
stroke-linecap:round; stroke-linejoin:round;">
<circle cx="10093.1" cy="15970.6" r="750" /> 
</g>
<g style="fill:#840000; fill-opacity:1.0; 
stroke:#840000; stroke-width:39.3701; stroke-opacity:1; 
stroke-linecap:round; stroke-linejoin:round;">
</g>
<g style="fill:#840000; fill-opacity:1.0; 
stroke:#840000; stroke-width:0; stroke-opacity:1; 
stroke-linecap:round; stroke-linejoin:round;">
<polyline style="fill-rule:evenodd;"
points="9343,11220
10843,11220
10843,12720
9343,12720
9343,11220
" /> 
<circle cx="10093.1" cy="17970.6" r="750" /> 
</g>
<g style="fill:#840000; fill-opacity:1.0; 
stroke:#840000; stroke-width:39.3701; stroke-opacity:1; 
stroke-linecap:round; stroke-linejoin:round;">
</g>
<g style="fill:#840000; fill-opacity:1.0; 
stroke:#840000; stroke-width:0; stroke-opacity:1; 
stroke-linecap:round; stroke-linejoin:round;">
<polyline style="fill-rule:evenodd;"
points="29195,10785
29195,12281
28408,12281
28408,10785
29195,10785
" /> 
<polyline style="fill-rule:evenodd;"
points="31675,11238
31675,11828
30888,11828
30888,11238
31675,11238
" /> 
<polyline style="fill-rule:evenodd;"
points="31675,10332
31675,10923
30888,10923
30888,10332
31675,10332
" /> 
<polyline style="fill-rule:evenodd;"
points="31675,12143
31675,12734
30888,12734
30888,12143
31675,12143
" /> 
</g>
<g style="fill:#C2C2C2; fill-opacity:1.0; 
stroke:#C2C2C2; stroke-width:0; stroke-opacity:1; 
stroke-linecap:round; stroke-linejoin:round;">
<circle cx="22939.6" cy="15947" r="236.22" /> 
</g>
<g style="fill:#C2C2C2; fill-opacity:1.0; 
stroke:#C2C2C2; stroke-width:39.3701; stroke-opacity:1; 
stroke-linecap:round; stroke-linejoin:round;">
</g>
<g style="fill:#C2C2C2; fill-opacity:1.0; 
stroke:#C2C2C2; stroke-width:0; stroke-opacity:1; 
stroke-linecap:round; stroke-linejoin:round;">
<circle cx="27160.1" cy="17061.2" r="295.276" /> 
</g>
<g style="fill:#C2C2C2; fill-opacity:1.0; 
stroke:#C2C2C2; stroke-width:39.3701; stroke-opacity:1; 
stroke-linecap:round; stroke-linejoin:round;">
</g>
<g style="fill:#C2C2C2; fill-opacity:1.0; 
stroke:#C2C2C2; stroke-width:0; stroke-opacity:1; 
stroke-linecap:round; stroke-linejoin:round;">
<circle cx="33845.1" cy="10608.4" r="295.276" /> 
</g>
<g style="fill:#C2C2C2; fill-opacity:1.0; 
stroke:#C2C2C2; stroke-width:39.3701; stroke-opacity:1; 
stroke-linecap:round; stroke-linejoin:round;">
</g>
<g style="fill:#C2C2C2; fill-opacity:1.0; 
stroke:#C2C2C2; stroke-width:0; stroke-opacity:1; 
stroke-linecap:round; stroke-linejoin:round;">
<circle cx="31309.7" cy="13502.1" r="295.276" /> 
</g>
<g style="fill:#C2C2C2; fill-opacity:1.0; 
stroke:#C2C2C2; stroke-width:39.3701; stroke-opacity:1; 
stroke-linecap:round; stroke-linejoin:round;">
</g>
<g style="fill:#C2C2C2; fill-opacity:1.0; 
stroke:#C2C2C2; stroke-width:0; stroke-opacity:1; 
stroke-linecap:round; stroke-linejoin:round;">
<circle cx="33160.1" cy="13613.9" r="236.22" /> 
</g>
<g style="fill:#C2C2C2; fill-opacity:1.0; 
stroke:#C2C2C2; stroke-width:39.3701; stroke-opacity:1; 
stroke-linecap:round; stroke-linejoin:round;">
</g>
<g style="fill:#C2C2C2; fill-opacity:1.0; 
stroke:#C2C2C2; stroke-width:0; stroke-opacity:1; 
stroke-linecap:round; stroke-linejoin:round;">
<circle cx="27545.9" cy="10982.4" r="295.276" /> 
</g>
<g style="fill:#C2C2C2; fill-opacity:1.0; 
stroke:#C2C2C2; stroke-width:39.3701; stroke-opacity:1; 
stroke-linecap:round; stroke-linejoin:round;">
</g>
<g style="fill:#C2C2C2; fill-opacity:1.0; 
stroke:#C2C2C2; stroke-width:0; stroke-opacity:1; 
stroke-linecap:round; stroke-linejoin:round;">
<circle cx="17463.2" cy="14179.3" r="295.276" /> 
</g>
<g style="fill:#C2C2C2; fill-opacity:1.0; 
stroke:#C2C2C2; stroke-width:39.3701; stroke-opacity:1; 
stroke-linecap:round; stroke-linejoin:round;">
</g>
<g style="fill:#C2C2C2; fill-opacity:1.0; 
stroke:#C2C2C2; stroke-width:0; stroke-opacity:1; 
stroke-linecap:round; stroke-linejoin:round;">
<circle cx="12380.5" cy="11915.5" r="295.276" /> 
</g>
<g style="fill:#C2C2C2; fill-opacity:1.0; 
stroke:#C2C2C2; stroke-width:39.3701; stroke-opacity:1; 
stroke-linecap:round; stroke-linejoin:round;">
</g>
<g style="fill:#C2C2C2; fill-opacity:1.0; 
stroke:#C2C2C2; stroke-width:0; stroke-opacity:1; 
stroke-linecap:round; stroke-linejoin:round;">
<circle cx="23560.1" cy="14313.9" r="236.22" /> 
</g>
<g style="fill:#C2C2C2; fill-opacity:1.0; 
stroke:#C2C2C2; stroke-width:39.3701; stroke-opacity:1; 
stroke-linecap:round; stroke-linejoin:round;">
</g>
<g style="fill:#C2C2C2; fill-opacity:1.0; 
stroke:#C2C2C2; stroke-width:0; stroke-opacity:1; 
stroke-linecap:round; stroke-linejoin:round;">
<circle cx="23360.1" cy="15213.9" r="236.22" /> 
</g>
<g style="fill:#C2C2C2; fill-opacity:1.0; 
stroke:#C2C2C2; stroke-width:39.3701; stroke-opacity:1; 
stroke-linecap:round; stroke-linejoin:round;">
</g>
<g style="fill:#C2C2C2; fill-opacity:1.0; 
stroke:#C2C2C2; stroke-width:0; stroke-opacity:1; 
stroke-linecap:round; stroke-linejoin:round;">
<circle cx="12093.1" cy="15978.5" r="295.276" /> 
</g>
<g style="fill:#C2C2C2; fill-opacity:1.0; 
stroke:#C2C2C2; stroke-width:39.3701; stroke-opacity:1; 
stroke-linecap:round; stroke-linejoin:round;">
</g>
<g style="fill:#C2C2C2; fill-opacity:1.0; 
stroke:#C2C2C2; stroke-width:0; stroke-opacity:1; 
stroke-linecap:round; stroke-linejoin:round;">
<circle cx="12034.1" cy="17974.5" r="295.276" /> 
</g>
<g style="fill:#C2C2C2; fill-opacity:1.0; 
stroke:#C2C2C2; stroke-width:39.3701; stroke-opacity:1; 
stroke-linecap:round; stroke-linejoin:round;">
</g>
<g style="fill:#840000; fill-opacity:1.0; 
stroke:#840000; stroke-width:39.3701; stroke-opacity:1; 
stroke-linecap:round; stroke-linejoin:round;">
</g>
<g style="fill:#840000; fill-opacity:1.0; 
stroke:#840000; stroke-width:314.961; stroke-opacity:1; 
stroke-linecap:round; stroke-linejoin:round;">
</g>
<g style="fill:#840000; fill-opacity:0.0; 
stroke:#840000; stroke-width:314.961; stroke-opacity:1; 
stroke-linecap:round; stroke-linejoin:round;">
<path d="M21640 17553
L24333 17553
" />
<path d="M24333 17553
L24360 17580
" />
<path d="M21640 16553
L24333 16553
" />
<path d="M24333 16553
L24360 16580
" />
<path d="M27160 17061
L26506 17061
" />
<path d="M26506 17061
L26486 17080
" />
<path d="M22833 16053
L22939 15946
" />
<path d="M21640 16053
L22833 16053
" />
<path d="M27140 17080
L26486 17080
" />
<path d="M27160 17061
L27140 17080
" />
<path d="M31282 12439
L32289 12439
" />
<path d="M32289 12439
L32301 12427
" />
<path d="M17939 19053
L17939 19761
" />
<path d="M14557 20289
L14557 19234
" />
<path d="M14904 20635
L14557 20289
" />
<path d="M17065 20635
L14904 20635
" />
<path d="M17939 19761
L17065 20635
" />
<path d="M17939 19053
L17939 19513
" />
<path d="M24104 19844
L24939 19009
" />
<path d="M18270 19844
L24104 19844
" />
<path d="M17939 19513
L18270 19844
" />
<path d="M31282 12439
L31282 13474
" />
<path d="M33837 10616
L33014 10616
" />
<path d="M33845 10608
L33837 10616
" />
<path d="M31282 13474
L31309 13502
" />
<path d="M20364 12765
L20313 12765
" />
<path d="M20313 12765
L20026 13053
" />
<path d="M20026 13053
L20026 13982
" />
<path d="M22203 10998
L21278 10998
" />
<path d="M20364 11911
L20364 12765
" />
<path d="M21278 10998
L20364 11911
" />
<path d="M31293 12427
L31282 12439
" />
<path d="M32337 12462
L32301 12427
" />
<path d="M24939 19009
L24939 18659
" />
<path d="M24939 18659
L24360 18080
" />
<path d="M20026 13982
L20026 18025
" />
<path d="M18998 19053
L17939 19053
" />
<path d="M20026 18025
L18998 19053
" />
<path d="M15815 14448
L15543 14448
" />
<path d="M15093 13998
L15093 12722
" />
<path d="M15543 14448
L15093 13998
" />
<path d="M14211 14948
L15315 14948
" />
<path d="M15815 14448
L16337 14448
" />
<path d="M15315 14948
L15815 14448
" />
<path d="M14601 17297
L14601 15338
" />
<path d="M14601 15338
L14211 14948
" />
<path d="M14557 19234
L14557 17340
" />
<path d="M14557 17340
L14601 17297
" />
<path d="M21640 17053
L24333 17053
" />
<path d="M24333 17053
L24360 17080
" />
<path d="M16069 19265
L15455 19265
" />
<path d="M15455 19265
L15423 19234
" />
<path d="M17939 18553
L16782 18553
" />
<path d="M16782 18553
L16069 19265
" />
<path d="M16069 17297
L15467 17297
" />
<path d="M17939 18053
L16825 18053
" />
<path d="M16825 18053
L16069 17297
" />
<path d="M22632 13954
L22632 15431
" />
<path d="M22510 15553
L21640 15553
" />
<path d="M22632 15431
L22510 15553
" />
<path d="M16337 14948
L17835 14948
" />
<path d="M17835 14948
L17939 15053
" />
<path d="M17939 15553
L18612 15553
" />
<path d="M17843 13448
L16337 13448
" />
<path d="M18711 14317
L17843 13448
" />
<path d="M18711 15454
L18711 14317
" />
<path d="M18612 15553
L18711 15454
" />
<path d="M26486 18080
L27817 18080
" />
<path d="M28801 14946
L28640 15108
" />
<path d="M28801 14946
L28801 12828
" />
<path d="M28128 15454
L28128 17769
" />
<path d="M28475 15108
L28128 15454
" />
<path d="M28640 15108
L28475 15108
" />
<path d="M27817 18080
L28128 17769
" />
<path d="M33086 11639
L33086 13539
" />
<path d="M33086 13539
L33160 13613
" />
<path d="M32301 11639
L33086 11639
" />
<path d="M33086 11639
L33160 11713
" />
<path d="M28801 11533
L28097 11533
" />
<path d="M28097 11533
L27545 10982
" />
<path d="M16337 13948
L17232 13948
" />
<path d="M17232 13948
L17463 14179
" />
<path d="M21152 12765
L21152 13643
" />
<path d="M21152 13643
L20813 13982
" />
<path d="M23203 10998
L23203 11769
" />
<path d="M23203 11769
L22207 12765
" />
<path d="M22207 12765
L21152 12765
" />
<path d="M31282 11533
L28801 11533
" />
<path d="M31282 11533
L32195 11533
" />
<path d="M32195 11533
L32301 11639
" />
<path d="M25726 19009
L25726 18840
" />
<path d="M25726 18840
L26486 18080
" />
<path d="M28801 11533
L28801 12828
" />
<path d="M28801 12828
L28801 12840
" />
<path d="M21569 13954
L20841 13954
" />
<path d="M20841 13954
L20813 13982
" />
<path d="M21640 15053
L21640 14025
" />
<path d="M21640 14025
L21569 13954
" />
<path d="M16337 13948
L15780 13948
" />
<path d="M15648 12954
L15880 12722
" />
<path d="M15648 13817
L15648 12954
" />
<path d="M15780 13948
L15648 13817
" />
<path d="M30797 10143
L31282 10628
" />
<path d="M14152 10143
L30797 10143
" />
<path d="M12380 11915
L14152 10143
" />
<path d="M31282 10628
L32215 10628
" />
<path d="M32215 10628
L32226 10616
" />
<path d="M24246 12191
L24246 11041
" />
<path d="M24246 11041
L24203 10998
" />
<path d="M26486 15580
L25703 15580
" />
<path d="M25203 12348
L25203 10998
" />
<path d="M25534 12679
L25203 12348
" />
<path d="M25534 15411
L25534 12679
" />
<path d="M25703 15580
L25534 15411
" />
<path d="M26203 10998
L26203 13470
" />
<path d="M26486 13754
L26486 15080
" />
<path d="M26203 13470
L26486 13754
" />
<path d="M24360 15080
L24326 15080
" />
<path d="M24326 15080
L23560 14313
" />
<path d="M24360 15580
L23726 15580
" />
<path d="M23726 15580
L23360 15213
" />
<path d="M24360 16080
L24939 16080
" />
<path d="M24246 14045
L24246 13254
" />
<path d="M25026 14824
L24246 14045
" />
<path d="M25026 15994
L25026 14824
" />
<path d="M24939 16080
L25026 15994
" />
<path d="M24246 13261
L24246 13254
" />
<path d="M14211 13948
L12638 13948
" />
<path d="M12093 14494
L12093 15978
" />
<path d="M12638 13948
L12093 14494
" />
<path d="M12982 14448
L14211 14448
" />
<path d="M12801 14630
L12982 14448
" />
<path d="M12801 17206
L12801 14630
" />
<path d="M12034 17974
L12801 17206
" />
</g>
<g style="fill:#840000; fill-opacity:1.0; 
stroke:#840000; stroke-width:393.701; stroke-opacity:1; 
stroke-linecap:round; stroke-linejoin:round;">
<polyline style="fill-rule:evenodd;"
points="29837,13907
27234,13907
27234,13754
27177,13467
27015,13225
26951,13160
26951,11600
27063,11433
27133,11077
27133,10918
27128,10891
29837,10891
29837,13907
" /> 
<polyline style="fill-rule:evenodd;"
points="15119,14346
15251,14477
15471,14625
15429,14830
15429,15067
15471,15285
15600,15486
15797,15621
15906,15643
14179,15643
14082,15669
14023,15720
13989,15790
13965,15881
13959,15925
13972,16002
13982,16018
13982,20193
9000,20193
9000,18773
9332,19106
9825,19310
10358,19311
10851,19107
11228,18730
11319,18512
11531,18725
11857,18860
12209,18860
12535,18725
12784,18476
12919,18151
12919,18146
13330,17735
13401,17630
13492,17493
13549,17206
13549,15196
14211,15196
14351,15169
14516,15169
14735,15128
14936,14998
15071,14801
15118,14567
15118,14344
15119,14346
" /> 
<polyline style="fill-rule:evenodd;"
points="12208,11029
12205,11029
11879,11164
11630,11413
11494,11738
11494,12090
11629,12416
11878,12666
12203,12801
12555,12801
12881,12666
13131,12417
13266,12092
13266,12087
14462,10891
22278,10891
22272,10918
22272,11077
22343,11433
22398,11516
21897,12017
21660,12017
21583,11965
21349,11917
20955,11917
20736,11958
20535,12088
20400,12285
20353,12519
20353,13011
20385,13183
20196,13304
20062,13502
20014,13736
20014,14228
20055,14447
20185,14648
20382,14783
20616,14830
20665,14830
20644,14935
20644,15171
20670,15308
20644,15435
20644,15671
20670,15808
20644,15935
20644,16171
20670,16308
20644,16435
20644,16671
20670,16808
20644,16935
20644,17171
20670,17308
20644,17435
20644,17671
20670,17808
20644,17935
20644,18171
20670,18308
20644,18435
20644,18671
20670,18808
20644,18935
20644,19171
20685,19390
20815,19591
21012,19726
21246,19773
22034,19773
22252,19732
22453,19603
22588,19405
22636,19171
22636,18935
22610,18798
22636,18671
22636,18435
22611,18301
24222,18301
24360,18328
24500,18301
24656,18301
24874,18259
25075,18130
25210,17933
25258,17698
25258,17462
25232,17326
25258,17198
25258,16962
25232,16826
25246,16758
25468,16609
25555,16523
25589,16471
25589,16698
25615,16835
25589,16962
25589,17198
25615,17335
25589,17462
25589,17698
25615,17835
25600,17909
25298,18211
25110,18332
24975,18529
24928,18763
24928,19256
24969,19474
25098,19675
25295,19810
25530,19858
25923,19858
26142,19816
26343,19687
26478,19490
26525,19256
26525,19099
26796,18828
27817,18828
28103,18771
28346,18609
28657,18298
28819,18056
28876,17769
28876,15809
28926,15799
29169,15637
29330,15475
29333,15472
29333,15490
29396,15807
29575,16075
29843,16254
30160,16317
30476,16254
30660,16131
30843,16254
31160,16317
31476,16254
31744,16075
31923,15807
31986,15490
31986,15137
31923,14820
31744,14552
31476,14373
31160,14310
30843,14373
30801,14401
30801,12413
30888,12430
31675,12430
31852,12397
32055,12438
32338,12438
32338,13437
32333,13448
32333,13777
32458,14081
32691,14314
32839,14376
32575,14552
32396,14820
32333,15137
32333,15490
32396,15807
32575,16075
32843,16254
33160,16317
33476,16254
33744,16075
33835,15939
33835,20193
17719,20193
17719,19301
17939,19301
18079,19273
18333,19273
18552,19232
18753,19103
18887,18905
18935,18671
18935,18435
18909,18298
18935,18171
18935,17935
18909,17798
18935,17671
18935,17435
18909,17298
18935,17171
18935,16935
18909,16798
18935,16671
18935,16435
18909,16298
18924,16227
19141,16082
19240,15983
19272,15935
19402,15741
19459,15454
19459,14317
19402,14030
19240,13788
18372,12920
18351,12906
18129,12757
17843,12700
16679,12700
16679,12476
16638,12257
16508,12056
16311,11921
16077,11874
15683,11874
15464,11915
15263,12044
15128,12242
15081,12476
15081,12482
14957,12668
14913,12887
14750,12776
14516,12728
13906,12728
13687,12769
13486,12899
13351,13096
13330,13200
12638,13200
12352,13257
12109,13420
11564,13965
11402,14207
11345,14494
11345,15473
11342,15476
11340,15480
11230,15212
10853,14834
10360,14630
9827,14629
9334,14833
9000,15167
9000,13201
9108,13275
9343,13322
10843,13322
11061,13281
11262,13152
11397,12954
11445,12720
11445,11220
11404,11001
11274,10800
11077,10665
10843,10618
9343,10618
9124,10659
9000,10739
9000,10374
12863,10374
12208,11029
" /> 
</g>
<g style="fill:#FFFFFF; fill-opacity:1.0; 
stroke:#FFFFFF; stroke-width:393.701; stroke-opacity:1; 
stroke-linecap:round; stroke-linejoin:round;">
</g>
<g style="fill:#FFFFFF; fill-opacity:1.0; 
stroke:#FFFFFF; stroke-width:0; stroke-opacity:1; 
stroke-linecap:round; stroke-linejoin:round;">
<circle cx="22939.6" cy="15947" r="137.795" /> 
</g>
<g style="fill:#FFFFFF; fill-opacity:1.0; 
stroke:#FFFFFF; stroke-width:39.3701; stroke-opacity:1; 
stroke-linecap:round; stroke-linejoin:round;">
</g>
<g style="fill:#FFFFFF; fill-opacity:1.0; 
stroke:#FFFFFF; stroke-width:0; stroke-opacity:1; 
stroke-linecap:round; stroke-linejoin:round;">
<circle cx="27160.1" cy="17061.2" r="137.795" /> 
</g>
<g style="fill:#FFFFFF; fill-opacity:1.0; 
stroke:#FFFFFF; stroke-width:39.3701; stroke-opacity:1; 
stroke-linecap:round; stroke-linejoin:round;">
</g>
<g style="fill:#FFFFFF; fill-opacity:1.0; 
stroke:#FFFFFF; stroke-width:0; stroke-opacity:1; 
stroke-linecap:round; stroke-linejoin:round;">
<circle cx="33845.1" cy="10608.4" r="137.795" /> 
</g>
<g style="fill:#FFFFFF; fill-opacity:1.0; 
stroke:#FFFFFF; stroke-width:39.3701; stroke-opacity:1; 
stroke-linecap:round; stroke-linejoin:round;">
</g>
<g style="fill:#FFFFFF; fill-opacity:1.0; 
stroke:#FFFFFF; stroke-width:0; stroke-opacity:1; 
stroke-linecap:round; stroke-linejoin:round;">
<circle cx="31309.7" cy="13502.1" r="137.795" /> 
</g>
<g style="fill:#FFFFFF; fill-opacity:1.0; 
stroke:#FFFFFF; stroke-width:39.3701; stroke-opacity:1; 
stroke-linecap:round; stroke-linejoin:round;">
</g>
<g style="fill:#FFFFFF; fill-opacity:1.0; 
stroke:#FFFFFF; stroke-width:0; stroke-opacity:1; 
stroke-linecap:round; stroke-linejoin:round;">
<circle cx="33160.1" cy="13613.9" r="137.795" /> 
</g>
<g style="fill:#FFFFFF; fill-opacity:1.0; 
stroke:#FFFFFF; stroke-width:39.3701; stroke-opacity:1; 
stroke-linecap:round; stroke-linejoin:round;">
</g>
<g style="fill:#FFFFFF; fill-opacity:1.0; 
stroke:#FFFFFF; stroke-width:0; stroke-opacity:1; 
stroke-linecap:round; stroke-linejoin:round;">
<circle cx="27545.9" cy="10982.4" r="137.795" /> 
</g>
<g style="fill:#FFFFFF; fill-opacity:1.0; 
stroke:#FFFFFF; stroke-width:39.3701; stroke-opacity:1; 
stroke-linecap:round; stroke-linejoin:round;">
</g>
<g style="fill:#FFFFFF; fill-opacity:1.0; 
stroke:#FFFFFF; stroke-width:0; stroke-opacity:1; 
stroke-linecap:round; stroke-linejoin:round;">
<circle cx="17463.2" cy="14179.3" r="137.795" /> 
</g>
<g style="fill:#FFFFFF; fill-opacity:1.0; 
stroke:#FFFFFF; stroke-width:39.3701; stroke-opacity:1; 
stroke-linecap:round; stroke-linejoin:round;">
</g>
<g style="fill:#FFFFFF; fill-opacity:1.0; 
stroke:#FFFFFF; stroke-width:0; stroke-opacity:1; 
stroke-linecap:round; stroke-linejoin:round;">
<circle cx="12380.5" cy="11915.5" r="137.795" /> 
</g>
<g style="fill:#FFFFFF; fill-opacity:1.0; 
stroke:#FFFFFF; stroke-width:39.3701; stroke-opacity:1; 
stroke-linecap:round; stroke-linejoin:round;">
</g>
<g style="fill:#FFFFFF; fill-opacity:1.0; 
stroke:#FFFFFF; stroke-width:0; stroke-opacity:1; 
stroke-linecap:round; stroke-linejoin:round;">
<circle cx="23560.1" cy="14313.9" r="137.795" /> 
</g>
<g style="fill:#FFFFFF; fill-opacity:1.0; 
stroke:#FFFFFF; stroke-width:39.3701; stroke-opacity:1; 
stroke-linecap:round; stroke-linejoin:round;">
</g>
<g style="fill:#FFFFFF; fill-opacity:1.0; 
stroke:#FFFFFF; stroke-width:0; stroke-opacity:1; 
stroke-linecap:round; stroke-linejoin:round;">
<circle cx="23360.1" cy="15213.9" r="137.795" /> 
</g>
<g style="fill:#FFFFFF; fill-opacity:1.0; 
stroke:#FFFFFF; stroke-width:39.3701; stroke-opacity:1; 
stroke-linecap:round; stroke-linejoin:round;">
</g>
<g style="fill:#FFFFFF; fill-opacity:1.0; 
stroke:#FFFFFF; stroke-width:0; stroke-opacity:1; 
stroke-linecap:round; stroke-linejoin:round;">
<circle cx="12093.1" cy="15978.5" r="137.795" /> 
</g>
<g style="fill:#FFFFFF; fill-opacity:1.0; 
stroke:#FFFFFF; stroke-width:39.3701; stroke-opacity:1; 
stroke-linecap:round; stroke-linejoin:round;">
</g>
<g style="fill:#FFFFFF; fill-opacity:1.0; 
stroke:#FFFFFF; stroke-width:0; stroke-opacity:1; 
stroke-linecap:round; stroke-linejoin:round;">
<circle cx="12034.1" cy="17974.5" r="137.795" /> 
</g>
<g style="fill:#FFFFFF; fill-opacity:1.0; 
stroke:#FFFFFF; stroke-width:39.3701; stroke-opacity:1; 
stroke-linecap:round; stroke-linejoin:round;">
</g>
<g style="fill:#FFFFFF; fill-opacity:1.0; 
stroke:#FFFFFF; stroke-width:0; stroke-opacity:1; 
stroke-linecap:round; stroke-linejoin:round;">
<circle cx="33160.1" cy="15313.9" r="157.48" /> 
</g>
<g style="fill:#FFFFFF; fill-opacity:1.0; 
stroke:#FFFFFF; stroke-width:39.3701; stroke-opacity:1; 
stroke-linecap:round; stroke-linejoin:round;">
</g>
<g style="fill:#FFFFFF; fill-opacity:1.0; 
stroke:#FFFFFF; stroke-width:0; stroke-opacity:1; 
stroke-linecap:round; stroke-linejoin:round;">
<circle cx="32160.1" cy="15313.9" r="157.48" /> 
</g>
<g style="fill:#FFFFFF; fill-opacity:1.0; 
stroke:#FFFFFF; stroke-width:39.3701; stroke-opacity:1; 
stroke-linecap:round; stroke-linejoin:round;">
</g>
<g style="fill:#FFFFFF; fill-opacity:1.0; 
stroke:#FFFFFF; stroke-width:0; stroke-opacity:1; 
stroke-linecap:round; stroke-linejoin:round;">
<circle cx="31160.1" cy="15313.9" r="157.48" /> 
</g>
<g style="fill:#FFFFFF; fill-opacity:1.0; 
stroke:#FFFFFF; stroke-width:39.3701; stroke-opacity:1; 
stroke-linecap:round; stroke-linejoin:round;">
</g>
<g style="fill:#FFFFFF; fill-opacity:1.0; 
stroke:#FFFFFF; stroke-width:0; stroke-opacity:1; 
stroke-linecap:round; stroke-linejoin:round;">
<circle cx="30160.1" cy="15313.9" r="157.48" /> 
</g>
<g style="fill:#FFFFFF; fill-opacity:1.0; 
stroke:#FFFFFF; stroke-width:39.3701; stroke-opacity:1; 
stroke-linecap:round; stroke-linejoin:round;">
</g>
<g style="fill:#FFFFFF; fill-opacity:1.0; 
stroke:#FFFFFF; stroke-width:0; stroke-opacity:1; 
stroke-linecap:round; stroke-linejoin:round;">
<circle cx="16069.5" cy="19265.9" r="157.48" /> 
</g>
<g style="fill:#FFFFFF; fill-opacity:1.0; 
stroke:#FFFFFF; stroke-width:39.3701; stroke-opacity:1; 
stroke-linecap:round; stroke-linejoin:round;">
</g>
<g style="fill:#FFFFFF; fill-opacity:1.0; 
stroke:#FFFFFF; stroke-width:0; stroke-opacity:1; 
stroke-linecap:round; stroke-linejoin:round;">
<circle cx="16069.5" cy="17297.4" r="157.48" /> 
</g>
<g style="fill:#FFFFFF; fill-opacity:1.0; 
stroke:#FFFFFF; stroke-width:39.3701; stroke-opacity:1; 
stroke-linecap:round; stroke-linejoin:round;">
</g>
<g style="fill:#FFFFFF; fill-opacity:1.0; 
stroke:#FFFFFF; stroke-width:0; stroke-opacity:1; 
stroke-linecap:round; stroke-linejoin:round;">
<circle cx="22203.4" cy="10998.2" r="200" /> 
</g>
<g style="fill:#FFFFFF; fill-opacity:1.0; 
stroke:#FFFFFF; stroke-width:39.3701; stroke-opacity:1; 
stroke-linecap:round; stroke-linejoin:round;">
</g>
<g style="fill:#FFFFFF; fill-opacity:1.0; 
stroke:#FFFFFF; stroke-width:0; stroke-opacity:1; 
stroke-linecap:round; stroke-linejoin:round;">
<circle cx="23203.4" cy="10998.2" r="200" /> 
</g>
<g style="fill:#FFFFFF; fill-opacity:1.0; 
stroke:#FFFFFF; stroke-width:39.3701; stroke-opacity:1; 
stroke-linecap:round; stroke-linejoin:round;">
</g>
<g style="fill:#FFFFFF; fill-opacity:1.0; 
stroke:#FFFFFF; stroke-width:0; stroke-opacity:1; 
stroke-linecap:round; stroke-linejoin:round;">
<circle cx="24203.4" cy="10998.2" r="200" /> 
</g>
<g style="fill:#FFFFFF; fill-opacity:1.0; 
stroke:#FFFFFF; stroke-width:39.3701; stroke-opacity:1; 
stroke-linecap:round; stroke-linejoin:round;">
</g>
<g style="fill:#FFFFFF; fill-opacity:1.0; 
stroke:#FFFFFF; stroke-width:0; stroke-opacity:1; 
stroke-linecap:round; stroke-linejoin:round;">
<circle cx="25203.4" cy="10998.2" r="200" /> 
</g>
<g style="fill:#FFFFFF; fill-opacity:1.0; 
stroke:#FFFFFF; stroke-width:39.3701; stroke-opacity:1; 
stroke-linecap:round; stroke-linejoin:round;">
</g>
<g style="fill:#FFFFFF; fill-opacity:1.0; 
stroke:#FFFFFF; stroke-width:0; stroke-opacity:1; 
stroke-linecap:round; stroke-linejoin:round;">
<circle cx="26203.4" cy="10998.2" r="200" /> 
</g>
<g style="fill:#FFFFFF; fill-opacity:1.0; 
stroke:#FFFFFF; stroke-width:39.3701; stroke-opacity:1; 
stroke-linecap:round; stroke-linejoin:round;">
</g>
<g style="fill:#FFFFFF; fill-opacity:1.0; 
stroke:#FFFFFF; stroke-width:0; stroke-opacity:1; 
stroke-linecap:round; stroke-linejoin:round;">
<circle cx="10093.1" cy="13970.6" r="300" /> 
</g>
<g style="fill:#FFFFFF; fill-opacity:1.0; 
stroke:#FFFFFF; stroke-width:39.3701; stroke-opacity:1; 
stroke-linecap:round; stroke-linejoin:round;">
</g>
<g style="fill:#FFFFFF; fill-opacity:1.0; 
stroke:#FFFFFF; stroke-width:0; stroke-opacity:1; 
stroke-linecap:round; stroke-linejoin:round;">
<circle cx="10093.1" cy="15970.6" r="300" /> 
</g>
<g style="fill:#FFFFFF; fill-opacity:1.0; 
stroke:#FFFFFF; stroke-width:39.3701; stroke-opacity:1; 
stroke-linecap:round; stroke-linejoin:round;">
</g>
<g style="fill:#FFFFFF; fill-opacity:1.0; 
stroke:#FFFFFF; stroke-width:0; stroke-opacity:1; 
stroke-linecap:round; stroke-linejoin:round;">
<circle cx="10093.1" cy="11970.6" r="300" /> 
</g>
<g style="fill:#FFFFFF; fill-opacity:1.0; 
stroke:#FFFFFF; stroke-width:39.3701; stroke-opacity:1; 
stroke-linecap:round; stroke-linejoin:round;">
</g>
<g style="fill:#FFFFFF; fill-opacity:1.0; 
stroke:#FFFFFF; stroke-width:0; stroke-opacity:1; 
stroke-linecap:round; stroke-linejoin:round;">
<circle cx="10093.1" cy="17970.6" r="300" /> 
</g>
<g style="fill:#FFFFFF; fill-opacity:1.0; 
stroke:#FFFFFF; stroke-width:39.3701; stroke-opacity:1; 
stroke-linecap:round; stroke-linejoin:round;">
</g>
<g style="fill:#000000; fill-opacity:1.0; 
stroke:#000000; stroke-width:39.3701; stroke-opacity:1; 
stroke-linecap:round; stroke-linejoin:round;">
</g>
<g style="fill:#840000; fill-opacity:1.0; 
stroke:#840000; stroke-width:39.3701; stroke-opacity:1; 
stroke-linecap:round; stroke-linejoin:round;">
</g>
<g style="fill:#840000; fill-opacity:1.0; 
stroke:#840000; stroke-width:629.921; stroke-opacity:1; 
stroke-linecap:round; stroke-linejoin:round;">
</g>
<g style="fill:#840000; fill-opacity:0.0; 
stroke:#840000; stroke-width:629.921; stroke-opacity:1; 
stroke-linecap:round; stroke-linejoin:round;">
<path d="M33160 15471
L33160 15156
" />
<path d="M32160 15471
L32160 15156
" />
<path d="M31160 15471
L31160 15156
" />
<path d="M30160 15471
L30160 15156
" />
</g>
<g style="fill:#840000; fill-opacity:0.0; 
stroke:#840000; stroke-width:0; stroke-opacity:1; 
stroke-linecap:round; stroke-linejoin:round;">
</g>
<g style="fill:#840000; fill-opacity:1.0; 
stroke:#840000; stroke-width:0; stroke-opacity:1; 
stroke-linecap:round; stroke-linejoin:round;">
<polyline style="fill-rule:evenodd;"
points="15738,18978
15738,19490
15108,19490
15108,18978
15738,18978
" /> 
<polyline style="fill-rule:evenodd;"
points="14872,18978
14872,19490
14242,19490
14242,18978
14872,18978
" /> 
<polyline style="fill-rule:evenodd;"
points="15782,17041
15782,17553
15152,17553
15152,17041
15782,17041
" /> 
<polyline style="fill-rule:evenodd;"
points="14915,17041
14915,17553
14286,17553
14286,17041
14915,17041
" /> 
<polyline style="fill-rule:evenodd;"
points="23006,13620
23006,14289
22258,14289
22258,13620
23006,13620
" /> 
<polyline style="fill-rule:evenodd;"
points="21943,13620
21943,14289
21195,14289
21195,13620
21943,13620
" /> 
<polyline style="fill-rule:evenodd;"
points="17467,15250
17467,14856
18412,14856
18412,15250
17467,15250
" /> 
<polyline style="fill-rule:evenodd;"
points="17467,15750
17467,15356
18412,15356
18412,15750
17467,15750
" /> 
<polyline style="fill-rule:evenodd;"
points="17467,16250
17467,15856
18412,15856
18412,16250
17467,16250
" /> 
<polyline style="fill-rule:evenodd;"
points="17467,16750
17467,16356
18412,16356
18412,16750
17467,16750
" /> 
<polyline style="fill-rule:evenodd;"
points="17467,17250
17467,16856
18412,16856
18412,17250
17467,17250
" /> 
<polyline style="fill-rule:evenodd;"
points="17467,17750
17467,17356
18412,17356
18412,17750
17467,17750
" /> 
<polyline style="fill-rule:evenodd;"
points="17467,18250
17467,17856
18412,17856
18412,18250
17467,18250
" /> 
<polyline style="fill-rule:evenodd;"
points="17467,18750
17467,18356
18412,18356
18412,18750
17467,18750
" /> 
<polyline style="fill-rule:evenodd;"
points="17467,19250
17467,18856
18412,18856
18412,19250
17467,19250
" /> 
<polyline style="fill-rule:evenodd;"
points="21167,19250
21167,18856
22112,18856
22112,19250
21167,19250
" /> 
<polyline style="fill-rule:evenodd;"
points="21167,18750
21167,18356
22112,18356
22112,18750
21167,18750
" /> 
<polyline style="fill-rule:evenodd;"
points="21167,18250
21167,17856
22112,17856
22112,18250
21167,18250
" /> 
<polyline style="fill-rule:evenodd;"
points="21167,17750
21167,17356
22112,17356
22112,17750
21167,17750
" /> 
<polyline style="fill-rule:evenodd;"
points="21167,17250
21167,16856
22112,16856
22112,17250
21167,17250
" /> 
<polyline style="fill-rule:evenodd;"
points="21167,16750
21167,16356
22112,16356
22112,16750
21167,16750
" /> 
<polyline style="fill-rule:evenodd;"
points="21167,16250
21167,15856
22112,15856
22112,16250
21167,16250
" /> 
<polyline style="fill-rule:evenodd;"
points="21167,15750
21167,15356
22112,15356
22112,15750
21167,15750
" /> 
<polyline style="fill-rule:evenodd;"
points="21167,15250
21167,14856
22112,14856
22112,15250
21167,15250
" /> 
<polyline style="fill-rule:evenodd;"
points="16721,14752
16721,15145
15953,15145
15953,14752
16721,14752
" /> 
<polyline style="fill-rule:evenodd;"
points="16721,14252
16721,14645
15953,14645
15953,14252
16721,14252
" /> 
<polyline style="fill-rule:evenodd;"
points="16721,13752
16721,14145
15953,14145
15953,13752
16721,13752
" /> 
<polyline style="fill-rule:evenodd;"
points="16721,13252
16721,13645
15953,13645
15953,13252
16721,13252
" /> 
<polyline style="fill-rule:evenodd;"
points="14595,13252
14595,13645
13827,13645
13827,13252
14595,13252
" /> 
<polyline style="fill-rule:evenodd;"
points="14595,13752
14595,14145
13827,14145
13827,13752
14595,13752
" /> 
<polyline style="fill-rule:evenodd;"
points="14595,14252
14595,14645
13827,14645
13827,14252
14595,14252
" /> 
<polyline style="fill-rule:evenodd;"
points="14595,14752
14595,15145
13827,15145
13827,14752
14595,14752
" /> 
<circle cx="16069.5" cy="19265.9" r="374.016" /> 
</g>
<g style="fill:#840000; fill-opacity:1.0; 
stroke:#840000; stroke-width:39.3701; stroke-opacity:1; 
stroke-linecap:round; stroke-linejoin:round;">
</g>
<g style="fill:#840000; fill-opacity:1.0; 
stroke:#840000; stroke-width:0; stroke-opacity:1; 
stroke-linecap:round; stroke-linejoin:round;">
<circle cx="16069.5" cy="17297.4" r="374.016" /> 
</g>
<g style="fill:#840000; fill-opacity:1.0; 
stroke:#840000; stroke-width:39.3701; stroke-opacity:1; 
stroke-linecap:round; stroke-linejoin:round;">
</g>
<g style="fill:#840000; fill-opacity:1.0; 
stroke:#840000; stroke-width:0; stroke-opacity:1; 
stroke-linecap:round; stroke-linejoin:round;">
<polyline style="fill-rule:evenodd;"
points="19750,14307
19750,13657
20301,13657
20301,14307
19750,14307
" /> 
<polyline style="fill-rule:evenodd;"
points="20538,14307
20538,13657
21089,13657
21089,14307
20538,14307
" /> 
<polyline style="fill-rule:evenodd;"
points="20089,13090
20089,12441
20640,12441
20640,13090
20089,13090
" /> 
<polyline style="fill-rule:evenodd;"
points="20876,13090
20876,12441
21427,12441
21427,13090
20876,13090
" /> 
<polyline style="fill-rule:evenodd;"
points="14817,13047
14817,12397
15368,12397
15368,13047
14817,13047
" /> 
<polyline style="fill-rule:evenodd;"
points="15604,13047
15604,12397
16156,12397
16156,13047
15604,13047
" /> 
<polyline style="fill-rule:evenodd;"
points="31951,10941
31951,10291
32502,10291
32502,10941
31951,10941
" /> 
<polyline style="fill-rule:evenodd;"
points="32738,10941
32738,10291
33289,10291
33289,10941
32738,10941
" /> 
<polyline style="fill-rule:evenodd;"
points="24663,19334
24663,18685
25215,18685
25215,19334
24663,19334
" /> 
<polyline style="fill-rule:evenodd;"
points="25451,19334
25451,18685
26002,18685
26002,19334
25451,19334
" /> 
<polyline style="fill-rule:evenodd;"
points="31976,11364
32626,11364
32626,11915
31976,11915
31976,11364
" /> 
<polyline style="fill-rule:evenodd;"
points="31976,12151
32626,12151
32626,12702
31976,12702
31976,12151
" /> 
<polyline style="fill-rule:evenodd;"
points="22622,11476
21784,11476
21784,10519
22622,10519
22622,11476
" /> 
</g>
<g style="fill:#840000; fill-opacity:1.0; 
stroke:#840000; stroke-width:837.48; stroke-opacity:1; 
stroke-linecap:round; stroke-linejoin:round;">
</g>
<g style="fill:#840000; fill-opacity:0.0; 
stroke:#840000; stroke-width:837.48; stroke-opacity:1; 
stroke-linecap:round; stroke-linejoin:round;">
<path d="M23203 11058
L23203 10938
" />
<path d="M24203 11058
L24203 10938
" />
<path d="M25203 11058
L25203 10938
" />
<path d="M26203 11058
L26203 10938
" />
</g>
<g style="fill:#840000; fill-opacity:0.0; 
stroke:#840000; stroke-width:0; stroke-opacity:1; 
stroke-linecap:round; stroke-linejoin:round;">
</g>
<g style="fill:#840000; fill-opacity:1.0; 
stroke:#840000; stroke-width:0; stroke-opacity:1; 
stroke-linecap:round; stroke-linejoin:round;">
<polyline style="fill-rule:evenodd;"
points="24581,13628
23912,13628
23912,12880
24581,12880
24581,13628
" /> 
<polyline style="fill-rule:evenodd;"
points="24581,12565
23912,12565
23912,11817
24581,11817
24581,12565
" /> 
<polyline style="fill-rule:evenodd;"
points="26860,17883
26860,18277
26112,18277
26112,17883
26860,17883
" /> 
<polyline style="fill-rule:evenodd;"
points="26860,17383
26860,17777
26112,17777
26112,17383
26860,17383
" /> 
<polyline style="fill-rule:evenodd;"
points="26860,16883
26860,17277
26112,17277
26112,16883
26860,16883
" /> 
<polyline style="fill-rule:evenodd;"
points="26860,16383
26860,16777
26112,16777
26112,16383
26860,16383
" /> 
<polyline style="fill-rule:evenodd;"
points="26860,15883
26860,16277
26112,16277
26112,15883
26860,15883
" /> 
<polyline style="fill-rule:evenodd;"
points="26860,15383
26860,15777
26112,15777
26112,15383
26860,15383
" /> 
<polyline style="fill-rule:evenodd;"
points="26860,14883
26860,15277
26112,15277
26112,14883
26860,14883
" /> 
<polyline style="fill-rule:evenodd;"
points="24734,14883
24734,15277
23986,15277
23986,14883
24734,14883
" /> 
<polyline style="fill-rule:evenodd;"
points="24734,15383
24734,15777
23986,15777
23986,15383
24734,15383
" /> 
<polyline style="fill-rule:evenodd;"
points="24734,15883
24734,16277
23986,16277
23986,15883
24734,15883
" /> 
<polyline style="fill-rule:evenodd;"
points="24734,16383
24734,16777
23986,16777
23986,16383
24734,16383
" /> 
<polyline style="fill-rule:evenodd;"
points="24734,16883
24734,17277
23986,17277
23986,16883
24734,16883
" /> 
<polyline style="fill-rule:evenodd;"
points="24734,17383
24734,17777
23986,17777
23986,17383
24734,17383
" /> 
<polyline style="fill-rule:evenodd;"
points="24734,17883
24734,18277
23986,18277
23986,17883
24734,17883
" /> 
<circle cx="10093.1" cy="13970.6" r="828.74" /> 
</g>
<g style="fill:#840000; fill-opacity:1.0; 
stroke:#840000; stroke-width:39.3701; stroke-opacity:1; 
stroke-linecap:round; stroke-linejoin:round;">
</g>
<g style="fill:#840000; fill-opacity:1.0; 
stroke:#840000; stroke-width:0; stroke-opacity:1; 
stroke-linecap:round; stroke-linejoin:round;">
<circle cx="10093.1" cy="15970.6" r="828.74" /> 
</g>
<g style="fill:#840000; fill-opacity:1.0; 
stroke:#840000; stroke-width:39.3701; stroke-opacity:1; 
stroke-linecap:round; stroke-linejoin:round;">
</g>
<g style="fill:#840000; fill-opacity:1.0; 
stroke:#840000; stroke-width:0; stroke-opacity:1; 
stroke-linecap:round; stroke-linejoin:round;">
<polyline style="fill-rule:evenodd;"
points="9264,11141
10921,11141
10921,12799
9264,12799
9264,11141
" /> 
<circle cx="10093.1" cy="17970.6" r="828.74" /> 
</g>
<g style="fill:#840000; fill-opacity:1.0; 
stroke:#840000; stroke-width:39.3701; stroke-opacity:1; 
stroke-linecap:round; stroke-linejoin:round;">
</g>
<g style="fill:#840000; fill-opacity:1.0; 
stroke:#840000; stroke-width:0; stroke-opacity:1; 
stroke-linecap:round; stroke-linejoin:round;">
<polyline style="fill-rule:evenodd;"
points="29274,10706
29274,12360
28329,12360
28329,10706
29274,10706
" /> 
<polyline style="fill-rule:evenodd;"
points="31754,11159
31754,11907
30809,11907
30809,11159
31754,11159
" /> 
<polyline style="fill-rule:evenodd;"
points="31754,10254
31754,11002
30809,11002
30809,10254
31754,10254
" /> 
<polyline style="fill-rule:evenodd;"
points="31754,12065
31754,12813
30809,12813
30809,12065
31754,12065
" /> 
</g>
<g style="fill:#000000; fill-opacity:1.0; 
stroke:#000000; stroke-width:0; stroke-opacity:1; 
stroke-linecap:round; stroke-linejoin:round;">
</g>
<g style="fill:#840000; fill-opacity:1.0; 
stroke:#840000; stroke-width:0; stroke-opacity:1; 
stroke-linecap:round; stroke-linejoin:round;">
<polyline style="fill-rule:evenodd;"
points="15660,19057
15660,19411
15187,19411
15187,19057
15660,19057
" /> 
<polyline style="fill-rule:evenodd;"
points="14793,19057
14793,19411
14321,19411
14321,19057
14793,19057
" /> 
<polyline style="fill-rule:evenodd;"
points="15703,17120
15703,17474
15230,17474
15230,17120
15703,17120
" /> 
<polyline style="fill-rule:evenodd;"
points="14837,17120
14837,17474
14364,17474
14364,17120
14837,17120
" /> 
<polyline style="fill-rule:evenodd;"
points="22927,13698
22927,14210
22337,14210
22337,13698
22927,13698
" /> 
<polyline style="fill-rule:evenodd;"
points="21864,13698
21864,14210
21274,14210
21274,13698
21864,13698
" /> 
<polyline style="fill-rule:evenodd;"
points="17545,15171
17545,14935
18333,14935
18333,15171
17545,15171
" /> 
<polyline style="fill-rule:evenodd;"
points="17545,15671
17545,15435
18333,15435
18333,15671
17545,15671
" /> 
<polyline style="fill-rule:evenodd;"
points="17545,16171
17545,15935
18333,15935
18333,16171
17545,16171
" /> 
<polyline style="fill-rule:evenodd;"
points="17545,16671
17545,16435
18333,16435
18333,16671
17545,16671
" /> 
<polyline style="fill-rule:evenodd;"
points="17545,17171
17545,16935
18333,16935
18333,17171
17545,17171
" /> 
<polyline style="fill-rule:evenodd;"
points="17545,17671
17545,17435
18333,17435
18333,17671
17545,17671
" /> 
<polyline style="fill-rule:evenodd;"
points="17545,18171
17545,17935
18333,17935
18333,18171
17545,18171
" /> 
<polyline style="fill-rule:evenodd;"
points="17545,18671
17545,18435
18333,18435
18333,18671
17545,18671
" /> 
<polyline style="fill-rule:evenodd;"
points="17545,19171
17545,18935
18333,18935
18333,19171
17545,19171
" /> 
<polyline style="fill-rule:evenodd;"
points="21246,19171
21246,18935
22034,18935
22034,19171
21246,19171
" /> 
<polyline style="fill-rule:evenodd;"
points="21246,18671
21246,18435
22034,18435
22034,18671
21246,18671
" /> 
<polyline style="fill-rule:evenodd;"
points="21246,18171
21246,17935
22034,17935
22034,18171
21246,18171
" /> 
<polyline style="fill-rule:evenodd;"
points="21246,17671
21246,17435
22034,17435
22034,17671
21246,17671
" /> 
<polyline style="fill-rule:evenodd;"
points="21246,17171
21246,16935
22034,16935
22034,17171
21246,17171
" /> 
<polyline style="fill-rule:evenodd;"
points="21246,16671
21246,16435
22034,16435
22034,16671
21246,16671
" /> 
<polyline style="fill-rule:evenodd;"
points="21246,16171
21246,15935
22034,15935
22034,16171
21246,16171
" /> 
<polyline style="fill-rule:evenodd;"
points="21246,15671
21246,15435
22034,15435
22034,15671
21246,15671
" /> 
<polyline style="fill-rule:evenodd;"
points="21246,15171
21246,14935
22034,14935
22034,15171
21246,15171
" /> 
<polyline style="fill-rule:evenodd;"
points="16642,14830
16642,15067
16032,15067
16032,14830
16642,14830
" /> 
<polyline style="fill-rule:evenodd;"
points="16642,14330
16642,14567
16032,14567
16032,14330
16642,14330
" /> 
<polyline style="fill-rule:evenodd;"
points="16642,13830
16642,14067
16032,14067
16032,13830
16642,13830
" /> 
<polyline style="fill-rule:evenodd;"
points="16642,13330
16642,13567
16032,13567
16032,13330
16642,13330
" /> 
<polyline style="fill-rule:evenodd;"
points="14516,13330
14516,13567
13906,13567
13906,13330
14516,13330
" /> 
<polyline style="fill-rule:evenodd;"
points="14516,13830
14516,14067
13906,14067
13906,13830
14516,13830
" /> 
<polyline style="fill-rule:evenodd;"
points="14516,14330
14516,14567
13906,14567
13906,14330
14516,14330
" /> 
<polyline style="fill-rule:evenodd;"
points="14516,14830
14516,15067
13906,15067
13906,14830
14516,14830
" /> 
<polyline style="fill-rule:evenodd;"
points="19829,14228
19829,13736
20223,13736
20223,14228
19829,14228
" /> 
<polyline style="fill-rule:evenodd;"
points="20616,14228
20616,13736
21010,13736
21010,14228
20616,14228
" /> 
<polyline style="fill-rule:evenodd;"
points="20167,13011
20167,12519
20561,12519
20561,13011
20167,13011
" /> 
<polyline style="fill-rule:evenodd;"
points="20955,13011
20955,12519
21349,12519
21349,13011
20955,13011
" /> 
<polyline style="fill-rule:evenodd;"
points="14896,12968
14896,12476
15289,12476
15289,12968
14896,12968
" /> 
<polyline style="fill-rule:evenodd;"
points="15683,12968
15683,12476
16077,12476
16077,12968
15683,12968
" /> 
<polyline style="fill-rule:evenodd;"
points="32030,10862
32030,10370
32423,10370
32423,10862
32030,10862
" /> 
<polyline style="fill-rule:evenodd;"
points="32817,10862
32817,10370
33211,10370
33211,10862
32817,10862
" /> 
<polyline style="fill-rule:evenodd;"
points="24742,19256
24742,18763
25136,18763
25136,19256
24742,19256
" /> 
<polyline style="fill-rule:evenodd;"
points="25530,19256
25530,18763
25923,18763
25923,19256
25530,19256
" /> 
<polyline style="fill-rule:evenodd;"
points="32055,11443
32547,11443
32547,11836
32055,11836
32055,11443
" /> 
<polyline style="fill-rule:evenodd;"
points="32055,12230
32547,12230
32547,12624
32055,12624
32055,12230
" /> 
<polyline style="fill-rule:evenodd;"
points="24502,13549
23990,13549
23990,12958
24502,12958
24502,13549
" /> 
<polyline style="fill-rule:evenodd;"
points="24502,12486
23990,12486
23990,11895
24502,11895
24502,12486
" /> 
<polyline style="fill-rule:evenodd;"
points="26782,17962
26782,18198
26191,18198
26191,17962
26782,17962
" /> 
<polyline style="fill-rule:evenodd;"
points="26782,17462
26782,17698
26191,17698
26191,17462
26782,17462
" /> 
<polyline style="fill-rule:evenodd;"
points="26782,16962
26782,17198
26191,17198
26191,16962
26782,16962
" /> 
<polyline style="fill-rule:evenodd;"
points="26782,16462
26782,16698
26191,16698
26191,16462
26782,16462
" /> 
<polyline style="fill-rule:evenodd;"
points="26782,15962
26782,16198
26191,16198
26191,15962
26782,15962
" /> 
<polyline style="fill-rule:evenodd;"
points="26782,15462
26782,15698
26191,15698
26191,15462
26782,15462
" /> 
<polyline style="fill-rule:evenodd;"
points="26782,14962
26782,15198
26191,15198
26191,14962
26782,14962
" /> 
<polyline style="fill-rule:evenodd;"
points="24656,14962
24656,15198
24065,15198
24065,14962
24656,14962
" /> 
<polyline style="fill-rule:evenodd;"
points="24656,15462
24656,15698
24065,15698
24065,15462
24656,15462
" /> 
<polyline style="fill-rule:evenodd;"
points="24656,15962
24656,16198
24065,16198
24065,15962
24656,15962
" /> 
<polyline style="fill-rule:evenodd;"
points="24656,16462
24656,16698
24065,16698
24065,16462
24656,16462
" /> 
<polyline style="fill-rule:evenodd;"
points="24656,16962
24656,17198
24065,17198
24065,16962
24656,16962
" /> 
<polyline style="fill-rule:evenodd;"
points="24656,17462
24656,17698
24065,17698
24065,17462
24656,17462
" /> 
<polyline style="fill-rule:evenodd;"
points="24656,17962
24656,18198
24065,18198
24065,17962
24656,17962
" /> 
<polyline style="fill-rule:evenodd;"
points="29195,10785
29195,12281
28408,12281
28408,10785
29195,10785
" /> 
<polyline style="fill-rule:evenodd;"
points="31675,11238
31675,11828
30888,11828
30888,11238
31675,11238
" /> 
<polyline style="fill-rule:evenodd;"
points="31675,10332
31675,10923
30888,10923
30888,10332
31675,10332
" /> 
<polyline style="fill-rule:evenodd;"
points="31675,12143
31675,12734
30888,12734
30888,12143
31675,12143
" /> 
</g>
<g style="fill:#000000; fill-opacity:1.0; 
stroke:#000000; stroke-width:0; stroke-opacity:1; 
stroke-linecap:round; stroke-linejoin:round;">
</g>
<g style="fill:#008484; fill-opacity:1.0; 
stroke:#008484; stroke-width:0; stroke-opacity:1; 
stroke-linecap:round; stroke-linejoin:round;">
</g>
<g style="fill:#008484; fill-opacity:1.0; 
stroke:#008484; stroke-width:59.0551; stroke-opacity:1; 
stroke-linecap:round; stroke-linejoin:round;">
</g>
<g style="fill:#008484; fill-opacity:0.0; 
stroke:#008484; stroke-width:59.0551; stroke-opacity:1; 
stroke-linecap:round; stroke-linejoin:round;">
<path d="M33593 19404
L27726 19404
" />
<path d="M27726 19144
L27726 14723
" />
<path d="M27726 14723
L33593 14723
" />
<path d="M33593 14723
L33593 19144
" />
<path d="M32660 15904
L32660 14723
" />
<path d="M14793 18968
L15187 18968
" />
<path d="M15187 19500
L14793 19500
" />
<path d="M14837 17031
L15230 17031
" />
<path d="M15230 17563
L14837 17563
" />
<path d="M21864 13610
L22337 13610
" />
<path d="M22337 14299
L21864 14299
" />
<path d="M18264 14710
L18264 14809
" />
<path d="M21315 14710
L21315 14846
" />
<path d="M21315 19395
L21315 19259
" />
<path d="M18264 19395
L18264 19259
" />
<path d="M18264 14710
L21315 14710
" />
<path d="M18264 19395
L21315 19395
" />
<path d="M18264 14809
L17545 14809
" />
<path d="M16091 15212
L16091 15193
" />
<path d="M14457 15212
L14457 15155
" />
<path d="M14457 13185
L14457 13242
" />
<path d="M16091 13185
L16091 13242
" />
<path d="M16091 15212
L14457 15212
" />
<path d="M16091 13185
L14457 13185
" />
<path d="M16091 15193
L16642 15193
" />
<path d="M20616 13647
L20223 13647
" />
<path d="M20223 14317
L20616 14317
" />
<path d="M20955 12431
L20561 12431
" />
<path d="M20561 13100
L20955 13100
" />
<path d="M15683 12387
L15289 12387
" />
<path d="M15289 13057
L15683 13057
" />
<path d="M32817 10281
L32423 10281
" />
<path d="M32423 10950
L32817 10950
" />
<path d="M25530 18675
L25136 18675
" />
<path d="M25136 19344
L25530 19344
" />
<path d="M32636 12230
L32636 11836
" />
<path d="M31967 11836
L31967 12230
" />
<path d="M22203 11608
L21593 11608
" />
<path d="M21593 11608
L21593 10387
" />
<path d="M21593 10387
L22203 10387
" />
<path d="M22703 10498
L26703 10498
" />
<path d="M26703 10498
L26703 11498
" />
<path d="M26703 11498
L22703 11498
" />
<path d="M22703 10498
L22703 11498
" />
<path d="M24591 12486
L24591 12958
" />
<path d="M23902 12958
L23902 12486
" />
<path d="M26240 18332
L26240 18322
" />
<path d="M24606 18332
L24606 18287
" />
<path d="M24606 14828
L24606 14874
" />
<path d="M26240 14828
L26240 14874
" />
<path d="M26240 18332
L24606 18332
" />
<path d="M26240 14828
L24606 14828
" />
<path d="M26240 18322
L26782 18322
" />
<path d="M11593 10970
L8593 10970
" />
<path d="M8593 18970
L11593 18970
" />
<path d="M9093 18970
L9093 10970
" />
<path d="M11593 10970
L11593 18970
" />
<path d="M8593 10970
L8593 18970
" />
</g>
<g style="fill:#008484; fill-opacity:0.0; 
stroke:#008484; stroke-width:47.2441; stroke-opacity:1; 
stroke-linecap:round; stroke-linejoin:round;">
<path d="M29289 10191
L29289 10687
" />
<path d="M29289 12876
L29289 12380
" />
<path d="M30770 10191
L29289 10191
" />
<path d="M31656 12876
L29289 12876
" />
</g>
<g style="fill:#C2C200; fill-opacity:0.0; 
stroke:#C2C200; stroke-width:47.2441; stroke-opacity:1; 
stroke-linecap:round; stroke-linejoin:round;">
</g>
<g style="fill:#C2C200; fill-opacity:0.0; 
stroke:#C2C200; stroke-width:59.0551; stroke-opacity:1; 
stroke-linecap:round; stroke-linejoin:round;">
<path d="M29850 13992
L29850 14374
L29872 14419
L29895 14442
L29940 14464
L30030 14464
L30075 14442
L30097 14419
L30120 14374
L30120 13992
" />
<path d="M30592 14464
L30322 14464
" />
<path d="M30457 14464
L30457 13992
L30412 14059
L30367 14104
L30322 14127
" />
<path d="M30885 13992
L30930 13992
L30975 14014
L30997 14037
L31020 14082
L31042 14172
L31042 14284
L31020 14374
L30997 14419
L30975 14442
L30930 14464
L30885 14464
L30840 14442
L30817 14419
L30795 14374
L30772 14284
L30772 14172
L30795 14082
L30817 14037
L30840 14014
L30885 13992
" />
<path d="M31469 13992
L31244 13992
L31222 14217
L31244 14194
L31289 14172
L31402 14172
L31447 14194
L31469 14217
L31492 14262
L31492 14374
L31469 14419
L31447 14442
L31402 14464
L31289 14464
L31244 14442
L31222 14419
" />
<path d="M14550 20123
L14531 20141
L14475 20160
L14437 20160
L14381 20141
L14343 20104
L14325 20066
L14306 19991
L14306 19935
L14325 19860
L14343 19823
L14381 19785
L14437 19766
L14475 19766
L14531 19785
L14550 19804
" />
<path d="M14925 20160
L14700 20160
" />
<path d="M14812 20160
L14812 19766
L14775 19823
L14737 19860
L14700 19879
" />
<path d="M15168 19766
L15206 19766
L15243 19785
L15262 19804
L15281 19841
L15300 19916
L15300 20010
L15281 20085
L15262 20123
L15243 20141
L15206 20160
L15168 20160
L15131 20141
L15112 20123
L15093 20085
L15075 20010
L15075 19916
L15093 19841
L15112 19804
L15131 19785
L15168 19766
" />
<path d="M15675 20160
L15450 20160
" />
<path d="M15562 20160
L15562 19766
L15525 19823
L15487 19860
L15450 19879
" />
<path d="M14593 18186
L14574 18204
L14518 18223
L14481 18223
L14424 18204
L14387 18167
L14368 18129
L14349 18054
L14349 17998
L14368 17923
L14387 17886
L14424 17848
L14481 17829
L14518 17829
L14574 17848
L14593 17867
" />
<path d="M14968 18223
L14743 18223
" />
<path d="M14855 18223
L14855 17829
L14818 17886
L14780 17923
L14743 17942
" />
<path d="M15212 17829
L15249 17829
L15287 17848
L15305 17867
L15324 17904
L15343 17979
L15343 18073
L15324 18148
L15305 18186
L15287 18204
L15249 18223
L15212 18223
L15174 18204
L15155 18186
L15137 18148
L15118 18073
L15118 17979
L15137 17904
L15155 17867
L15174 17848
L15212 17829
" />
<path d="M15493 17867
L15512 17848
L15549 17829
L15643 17829
L15680 17848
L15699 17867
L15718 17904
L15718 17942
L15699 17998
L15474 18223
L15718 18223
" />
<path d="M21660 14959
L21529 14772
" />
<path d="M21435 14959
L21435 14566
L21585 14566
L21622 14584
L21641 14603
L21660 14641
L21660 14697
L21641 14734
L21622 14753
L21585 14772
L21435 14772
" />
<path d="M22035 14959
L21810 14959
" />
<path d="M21922 14959
L21922 14566
L21885 14622
L21847 14659
L21810 14678
" />
<path d="M22279 14566
L22316 14566
L22354 14584
L22372 14603
L22391 14641
L22410 14716
L22410 14809
L22391 14884
L22372 14922
L22354 14940
L22316 14959
L22279 14959
L22241 14940
L22222 14922
L22204 14884
L22185 14809
L22185 14716
L22204 14641
L22222 14603
L22241 14584
L22279 14566
" />
<path d="M22785 14959
L22560 14959
" />
<path d="M22672 14959
L22672 14566
L22635 14622
L22597 14659
L22560 14678
" />
<path d="M19115 14130
L19115 14449
L19133 14487
L19152 14505
L19190 14524
L19265 14524
L19302 14505
L19321 14487
L19340 14449
L19340 14130
" />
<path d="M19733 14524
L19508 14524
" />
<path d="M19621 14524
L19621 14130
L19583 14187
L19546 14224
L19508 14243
" />
<path d="M19977 14130
L20014 14130
L20052 14149
L20071 14168
L20089 14205
L20108 14280
L20108 14374
L20089 14449
L20071 14487
L20052 14505
L20014 14524
L19977 14524
L19939 14505
L19921 14487
L19902 14449
L19883 14374
L19883 14280
L19902 14205
L19921 14168
L19939 14149
L19977 14130
" />
<path d="M20483 14524
L20258 14524
" />
<path d="M20371 14524
L20371 14130
L20333 14187
L20296 14224
L20258 14243
" />
<path d="M14599 15361
L14599 15680
L14618 15717
L14636 15736
L14674 15755
L14749 15755
L14786 15736
L14805 15717
L14824 15680
L14824 15361
" />
<path d="M15217 15755
L14993 15755
" />
<path d="M15105 15755
L15105 15361
L15068 15417
L15030 15455
L14993 15473
" />
<path d="M15461 15361
L15499 15361
L15536 15380
L15555 15398
L15574 15436
L15592 15511
L15592 15605
L15574 15680
L15555 15717
L15536 15736
L15499 15755
L15461 15755
L15424 15736
L15405 15717
L15386 15680
L15367 15605
L15367 15511
L15386 15436
L15405 15398
L15424 15380
L15461 15361
" />
<path d="M15742 15398
L15761 15380
L15799 15361
L15892 15361
L15930 15380
L15949 15398
L15967 15436
L15967 15473
L15949 15530
L15724 15755
L15967 15755
" />
<path d="M19979 13296
L19960 13315
L19904 13333
L19866 13333
L19810 13315
L19773 13277
L19754 13240
L19735 13165
L19735 13108
L19754 13033
L19773 12996
L19810 12958
L19866 12940
L19904 12940
L19960 12958
L19979 12977
" />
<path d="M20354 13333
L20129 13333
" />
<path d="M20241 13333
L20241 12940
L20204 12996
L20166 13033
L20129 13052
" />
<path d="M20598 12940
L20635 12940
L20672 12958
L20691 12977
L20710 13015
L20729 13090
L20729 13183
L20710 13258
L20691 13296
L20672 13315
L20635 13333
L20598 13333
L20560 13315
L20541 13296
L20523 13258
L20504 13183
L20504 13090
L20523 13015
L20541 12977
L20560 12958
L20598 12940
" />
<path d="M20860 12940
L21104 12940
L20972 13090
L21029 13090
L21066 13108
L21085 13127
L21104 13165
L21104 13258
L21085 13296
L21066 13315
L21029 13333
L20916 13333
L20879 13315
L20860 13296
" />
<path d="M20317 12079
L20299 12098
L20242 12117
L20205 12117
L20149 12098
L20111 12060
L20092 12023
L20074 11948
L20074 11892
L20092 11817
L20111 11779
L20149 11742
L20205 11723
L20242 11723
L20299 11742
L20317 11761
" />
<path d="M20692 12117
L20467 12117
" />
<path d="M20580 12117
L20580 11723
L20542 11779
L20505 11817
L20467 11836
" />
<path d="M20936 11723
L20974 11723
L21011 11742
L21030 11761
L21049 11798
L21067 11873
L21067 11967
L21049 12042
L21030 12079
L21011 12098
L20974 12117
L20936 12117
L20899 12098
L20880 12079
L20861 12042
L20842 11967
L20842 11873
L20861 11798
L20880 11761
L20899 11742
L20936 11723
" />
<path d="M21405 11854
L21405 12117
" />
<path d="M21311 11704
L21217 11985
L21461 11985
" />
<path d="M15046 12036
L15027 12055
L14971 12073
L14933 12073
L14877 12055
L14840 12017
L14821 11980
L14802 11905
L14802 11848
L14821 11773
L14840 11736
L14877 11698
L14933 11680
L14971 11680
L15027 11698
L15046 11717
" />
<path d="M15421 12073
L15196 12073
" />
<path d="M15308 12073
L15308 11680
L15271 11736
L15233 11773
L15196 11792
" />
<path d="M15664 11680
L15702 11680
L15739 11698
L15758 11717
L15777 11755
L15796 11830
L15796 11923
L15777 11998
L15758 12036
L15739 12055
L15702 12073
L15664 12073
L15627 12055
L15608 12036
L15589 11998
L15571 11923
L15571 11830
L15589 11755
L15608 11717
L15627 11698
L15664 11680
" />
<path d="M16152 11680
L15964 11680
L15946 11867
L15964 11848
L16002 11830
L16096 11830
L16133 11848
L16152 11867
L16171 11905
L16171 11998
L16152 12036
L16133 12055
L16096 12073
L16002 12073
L15964 12055
L15946 12036
" />
<path d="M32180 9930
L32161 9948
L32105 9967
L32067 9967
L32011 9948
L31973 9911
L31955 9873
L31936 9798
L31936 9742
L31955 9667
L31973 9630
L32011 9592
L32067 9573
L32105 9573
L32161 9592
L32180 9611
" />
<path d="M32555 9967
L32330 9967
" />
<path d="M32442 9967
L32442 9573
L32405 9630
L32367 9667
L32330 9686
" />
<path d="M32798 9573
L32836 9573
L32873 9592
L32892 9611
L32911 9648
L32930 9723
L32930 9817
L32911 9892
L32892 9930
L32873 9948
L32836 9967
L32798 9967
L32761 9948
L32742 9930
L32723 9892
L32705 9817
L32705 9723
L32723 9648
L32742 9611
L32761 9592
L32798 9573
" />
<path d="M33267 9573
L33192 9573
L33154 9592
L33136 9611
L33098 9667
L33080 9742
L33080 9892
L33098 9930
L33117 9948
L33154 9967
L33229 9967
L33267 9948
L33286 9930
L33304 9892
L33304 9798
L33286 9761
L33267 9742
L33229 9723
L33154 9723
L33117 9742
L33098 9761
L33080 9798
" />
<path d="M24892 18323
L24873 18342
L24817 18361
L24780 18361
L24723 18342
L24686 18305
L24667 18267
L24648 18192
L24648 18136
L24667 18061
L24686 18023
L24723 17986
L24780 17967
L24817 17967
L24873 17986
L24892 18005
" />
<path d="M25042 18005
L25061 17986
L25098 17967
L25192 17967
L25230 17986
L25248 18005
L25267 18042
L25267 18080
L25248 18136
L25023 18361
L25267 18361
" />
<path d="M25511 17967
L25548 17967
L25586 17986
L25605 18005
L25623 18042
L25642 18117
L25642 18211
L25623 18286
L25605 18323
L25586 18342
L25548 18361
L25511 18361
L25473 18342
L25455 18323
L25436 18286
L25417 18211
L25417 18117
L25436 18042
L25455 18005
L25473 17986
L25511 17967
" />
<path d="M26017 18361
L25792 18361
" />
<path d="M25905 18361
L25905 17967
L25867 18023
L25830 18061
L25792 18080
" />
<path d="M33269 12474
L33287 12492
L33306 12549
L33306 12586
L33287 12642
L33250 12680
L33212 12699
L33137 12717
L33081 12717
L33006 12699
L32969 12680
L32931 12642
L32912 12586
L32912 12549
L32931 12492
L32950 12474
" />
<path d="M32950 12324
L32931 12305
L32912 12267
L32912 12174
L32931 12136
L32950 12117
L32987 12099
L33025 12099
L33081 12117
L33306 12342
L33306 12099
" />
<path d="M32912 11855
L32912 11818
L32931 11780
L32950 11761
L32987 11743
L33062 11724
L33156 11724
L33231 11743
L33269 11761
L33287 11780
L33306 11818
L33306 11855
L33287 11892
L33269 11911
L33231 11930
L33156 11949
L33062 11949
L32987 11930
L32950 11911
L32931 11892
L32912 11855
" />
<path d="M32912 11386
L32912 11461
L32931 11499
L32950 11518
L33006 11555
L33081 11574
L33231 11574
L33269 11555
L33287 11536
L33306 11499
L33306 11424
L33287 11386
L33269 11368
L33231 11349
L33137 11349
L33100 11368
L33081 11386
L33062 11424
L33062 11499
L33081 11536
L33100 11555
L33137 11574
" />
<path d="M20373 11663
L19979 11663
L19979 11513
L19998 11476
L20017 11457
L20054 11438
L20111 11438
L20148 11457
L20167 11476
L20186 11513
L20186 11663
" />
<path d="M20373 11063
L20373 11288
" />
<path d="M20373 11176
L19979 11176
L20036 11213
L20073 11251
L20092 11288
" />
<path d="M19979 10820
L19979 10782
L19998 10745
L20017 10726
L20054 10707
L20129 10688
L20223 10688
L20298 10707
L20336 10726
L20354 10745
L20373 10782
L20373 10820
L20354 10857
L20336 10876
L20298 10895
L20223 10913
L20129 10913
L20054 10895
L20017 10876
L19998 10857
L19979 10820
" />
<path d="M20017 10538
L19998 10520
L19979 10482
L19979 10388
L19998 10351
L20017 10332
L20054 10313
L20092 10313
L20148 10332
L20373 10557
L20373 10313
" />
<path d="M23598 13163
L23410 13294
" />
<path d="M23598 13388
L23204 13388
L23204 13238
L23223 13200
L23241 13181
L23279 13163
L23335 13163
L23373 13181
L23391 13200
L23410 13238
L23410 13388
" />
<path d="M23598 12788
L23598 13013
" />
<path d="M23598 12900
L23204 12900
L23260 12938
L23298 12975
L23316 13013
" />
<path d="M23204 12544
L23204 12506
L23223 12469
L23241 12450
L23279 12431
L23354 12413
L23448 12413
L23523 12431
L23560 12450
L23579 12469
L23598 12506
L23598 12544
L23579 12581
L23560 12600
L23523 12619
L23448 12638
L23354 12638
L23279 12619
L23241 12600
L23223 12581
L23204 12544
" />
<path d="M23241 12263
L23223 12244
L23204 12207
L23204 12113
L23223 12075
L23241 12057
L23279 12038
L23316 12038
L23373 12057
L23598 12282
L23598 12038
" />
<path d="M24664 18875
L24664 18481
" />
<path d="M25077 18837
L25058 18856
L25002 18875
L24964 18875
L24908 18856
L24870 18818
L24852 18781
L24833 18706
L24833 18650
L24852 18575
L24870 18537
L24908 18500
L24964 18481
L25002 18481
L25058 18500
L25077 18518
" />
<path d="M25451 18875
L25226 18875
" />
<path d="M25339 18875
L25339 18481
L25301 18537
L25264 18575
L25226 18593
" />
<path d="M25695 18481
L25733 18481
L25770 18500
L25789 18518
L25808 18556
L25826 18631
L25826 18725
L25808 18800
L25789 18837
L25770 18856
L25733 18875
L25695 18875
L25658 18856
L25639 18837
L25620 18800
L25601 18725
L25601 18631
L25620 18556
L25639 18518
L25658 18500
L25695 18481
" />
<path d="M26201 18875
L25976 18875
" />
<path d="M26089 18875
L26089 18481
L26051 18537
L26014 18575
L25976 18593
" />
<path d="M12771 15636
L12377 15636
L12377 15486
L12396 15448
L12415 15429
L12452 15411
L12508 15411
L12546 15429
L12565 15448
L12583 15486
L12583 15636
" />
<path d="M12771 15036
L12771 15261
" />
<path d="M12771 15148
L12377 15148
L12433 15186
L12471 15223
L12490 15261
" />
<path d="M12377 14792
L12377 14755
L12396 14717
L12415 14698
L12452 14680
L12527 14661
L12621 14661
L12696 14680
L12733 14698
L12752 14717
L12771 14755
L12771 14792
L12752 14830
L12733 14848
L12696 14867
L12621 14886
L12527 14886
L12452 14867
L12415 14848
L12396 14830
L12377 14792
" />
<path d="M12377 14530
L12377 14286
L12527 14417
L12527 14361
L12546 14323
L12565 14305
L12602 14286
L12696 14286
L12733 14305
L12752 14323
L12771 14361
L12771 14473
L12752 14511
L12733 14530
" />
<path d="M29367 13089
L29367 13408
L29385 13445
L29404 13464
L29442 13483
L29517 13483
L29554 13464
L29573 13445
L29592 13408
L29592 13089
" />
<path d="M29985 13483
L29760 13483
" />
<path d="M29873 13483
L29873 13089
L29835 13145
L29798 13183
L29760 13202
" />
<path d="M30229 13089
L30266 13089
L30304 13108
L30323 13127
L30341 13164
L30360 13239
L30360 13333
L30341 13408
L30323 13445
L30304 13464
L30266 13483
L30229 13483
L30191 13464
L30173 13445
L30154 13408
L30135 13333
L30135 13239
L30154 13164
L30173 13127
L30191 13108
L30229 13089
" />
<path d="M30491 13089
L30735 13089
L30604 13239
L30660 13239
L30698 13258
L30716 13277
L30735 13314
L30735 13408
L30716 13445
L30698 13464
L30660 13483
L30548 13483
L30510 13464
L30491 13445
" />
</g>
<g style="fill:#000000; fill-opacity:0.0; 
stroke:#000000; stroke-width:59.0551; stroke-opacity:1; 
stroke-linecap:round; stroke-linejoin:round;">
</g>
<g style="fill:#C2C200; fill-opacity:0.0; 
stroke:#C2C200; stroke-width:59.0551; stroke-opacity:1; 
stroke-linecap:round; stroke-linejoin:round;">
<path d="M34455 9754
L34526 9754
" />
<path d="M34455 20813
L34455 9754
" />
<path d="M34211 20813
L34455 20813
" />
<path d="M8380 20813
L34211 20813
" />
<path d="M8380 9754
L8380 20813
" />
<path d="M34384 9754
L8380 9754
" />
</g> 
</svg>
